<svg width="295" height="323" viewBox="0 0 295 323" fill="none" xmlns="http://www.w3.org/2000/svg">
<g filter="url(#filter0_i_10_61)">
<path fill-rule="evenodd" clip-rule="evenodd" d="M149.819 0.0101731C153.374 0.0731285 157.242 0.439332 160.328 1.42912C164.13 2.64849 168.582 4.55159 172.172 6.34904C173.967 7.24771 175.557 8.1251 176.748 8.88224C177.343 9.26015 177.847 9.61472 178.231 9.93107C178.593 10.2304 178.915 10.5499 179.057 10.8647C179.101 10.9618 179.257 11.1587 179.601 11.4828C179.927 11.7902 180.366 12.1617 180.899 12.6069C181.958 13.4919 183.364 14.6453 184.872 16.0737C187.889 18.9308 191.348 22.9166 193.387 28.1869C195.376 33.3284 196.858 36.6577 197.803 40.0082C198.756 43.3882 199.169 46.7995 199.066 52.1615C198.859 62.8912 196.326 70.9019 193.357 76.2318C191.002 80.4593 186.912 86.3687 185.165 88.7914L185.159 88.7992L185.154 88.8061C183.023 91.5357 179.762 95.6747 176.905 99.2192C175.477 100.991 174.148 102.617 173.111 103.845C172.592 104.458 172.144 104.976 171.791 105.364C171.615 105.557 171.46 105.722 171.33 105.851C171.234 105.947 171.134 106.034 171.046 106.104C170.365 106.842 167.254 110.193 164.194 113.645C162.649 115.387 161.121 117.151 159.926 118.615C159.328 119.347 158.817 120 158.431 120.536C158.034 121.085 157.798 121.471 157.715 121.682L157.711 121.694L157.706 121.705C157.399 122.386 157.235 122.719 157.099 122.957C156.973 123.177 156.843 123.354 156.686 123.605C156.329 124.173 155.596 125.448 153.506 129.615C152.571 132.569 150.709 136.577 149.999 145.631C149.494 152.07 149.296 156.51 149.244 158.471L153.052 156.274L159.255 152.219C160.714 151.101 162.96 149.324 164.978 147.614C165.991 146.755 166.943 145.915 167.707 145.186C168.484 144.445 169.031 143.853 169.269 143.48C169.96 142.393 171.725 139.978 173.328 137.66C174.136 136.491 174.909 135.339 175.501 134.37C175.797 133.885 176.046 133.451 176.23 133.087C176.418 132.714 176.521 132.449 176.554 132.289C176.658 131.789 176.995 130.83 177.416 129.702C177.844 128.557 178.379 127.186 178.896 125.842C179.414 124.494 179.916 123.172 180.283 122.109C180.467 121.577 180.614 121.117 180.713 120.755C180.819 120.368 180.848 120.162 180.844 120.099C180.837 119.974 180.857 119.83 180.88 119.699C180.905 119.557 180.942 119.388 180.988 119.2C181.082 118.822 181.22 118.341 181.39 117.786C181.73 116.673 182.207 115.239 182.737 113.699C183.796 110.616 185.077 107.082 185.933 104.769H185.932C186.868 102.228 188.421 98.217 190.038 94.436C191.634 90.7039 193.319 87.1305 194.544 85.4496C195.208 84.113 196.378 81.7689 197.85 79.3217C199.332 76.8588 201.142 74.2564 203.074 72.4701C203.203 72.3505 203.362 72.1483 203.603 71.8236C203.834 71.5119 204.123 71.1102 204.492 70.6459C205.235 69.7116 206.301 68.5158 207.941 67.143C211.218 64.3988 216.769 60.9647 226.573 57.476C232.329 55.3969 247.206 52.858 260.917 59.2787C269.413 63.2569 274.066 66.3423 277.044 69.0248C280.015 71.7013 281.319 73.9908 283.038 76.2143L283.042 76.2182C284.226 77.7829 286.079 80.5103 287.805 83.6264C289.528 86.7366 291.145 90.2699 291.831 93.4379C292.676 97.3403 293.254 102.147 293.492 106.155C293.612 108.159 293.646 109.974 293.586 111.384C293.556 112.088 293.501 112.702 293.419 113.193C293.341 113.657 293.225 114.094 293.024 114.374C292.961 114.461 292.869 114.694 292.76 115.155C292.657 115.591 292.555 116.157 292.436 116.841C292.199 118.202 291.903 119.995 291.42 122.015C290.454 126.056 288.733 131.045 285.188 135.446C281.729 139.739 279.587 142.687 277.157 145.181C274.707 147.697 271.959 149.759 267.264 152.351C257.868 157.537 249.664 159.348 243.564 159.442C238.725 159.516 231.562 158.93 228.591 158.628L228.581 158.626L228.572 158.625C225.143 158.145 219.929 157.391 215.431 156.689C213.182 156.338 211.109 156 209.528 155.715C208.737 155.573 208.064 155.443 207.552 155.331C207.297 155.276 207.076 155.224 206.9 155.176C206.769 155.141 206.643 155.099 206.539 155.057C205.559 154.836 201.101 153.817 196.582 152.893C194.301 152.426 192.009 151.985 190.144 151.682C189.211 151.531 188.39 151.414 187.733 151.347C187.059 151.278 186.606 151.268 186.382 151.301L186.37 151.303L186.359 151.304C185.614 151.378 185.245 151.404 184.97 151.405C184.717 151.406 184.499 151.382 184.202 151.371C183.532 151.345 182.062 151.349 177.407 151.622C174.381 152.29 169.979 152.681 161.783 156.593C157.024 158.865 153.522 160.648 151.458 161.735C153.264 162.709 157.14 164.715 162.783 167.409C170.98 171.321 175.381 171.712 178.407 172.379C183.062 172.653 184.532 172.655 185.202 172.63C185.498 172.619 185.716 172.596 185.969 172.597C186.244 172.598 186.614 172.622 187.359 172.697L187.382 172.701C187.606 172.734 188.058 172.723 188.733 172.654C189.39 172.587 190.211 172.471 191.144 172.32C193.009 172.017 195.301 171.575 197.581 171.109C202.1 170.185 206.558 169.166 207.538 168.945C207.643 168.903 207.768 168.861 207.9 168.826C208.076 168.778 208.296 168.725 208.552 168.669C209.064 168.558 209.736 168.429 210.527 168.287C212.109 168.002 214.182 167.664 216.431 167.313C220.929 166.611 226.143 165.857 229.572 165.376L229.581 165.374L229.591 165.373C232.562 165.072 239.725 164.485 244.564 164.559C250.664 164.652 258.868 166.465 268.264 171.651C272.959 174.243 275.707 176.305 278.157 178.821C280.587 181.315 282.728 184.262 286.187 188.556C289.732 192.957 291.454 197.945 292.42 201.986C292.903 204.006 293.199 205.8 293.436 207.161C293.555 207.845 293.657 208.411 293.76 208.847C293.869 209.307 293.961 209.541 294.024 209.627C294.225 209.908 294.341 210.345 294.419 210.809C294.501 211.299 294.556 211.914 294.586 212.618C294.646 214.028 294.611 215.843 294.491 217.847C294.253 221.855 293.676 226.661 292.831 230.564C292.145 233.732 290.528 237.265 288.805 240.375C287.079 243.492 285.226 246.219 284.042 247.784L284.038 247.788C282.319 250.011 281.015 252.3 278.044 254.976C275.066 257.659 270.412 260.744 261.916 264.722C248.205 271.143 233.329 268.605 227.573 266.526C217.769 263.037 212.218 259.603 208.941 256.859C207.301 255.486 206.235 254.29 205.492 253.356C205.123 252.891 204.834 252.49 204.603 252.178C204.362 251.853 204.202 251.651 204.073 251.532C202.141 249.745 200.332 247.143 198.85 244.68C197.377 242.233 196.207 239.888 195.544 238.551C194.319 236.87 192.634 233.297 191.038 229.565C189.421 225.784 187.868 221.772 186.932 219.232L186.933 219.233C186.077 216.92 184.795 213.386 183.736 210.303C183.206 208.762 182.73 207.329 182.39 206.216C182.22 205.661 182.082 205.18 181.988 204.802C181.942 204.614 181.905 204.445 181.88 204.303C181.857 204.172 181.837 204.026 181.844 203.902C181.848 203.838 181.819 203.632 181.713 203.246C181.614 202.884 181.467 202.424 181.283 201.893C180.916 200.83 180.414 199.507 179.896 198.16C179.378 196.815 178.844 195.445 178.416 194.3C177.995 193.172 177.658 192.213 177.554 191.712C177.521 191.553 177.418 191.288 177.23 190.914C177.046 190.551 176.798 190.117 176.501 189.632C175.909 188.663 175.137 187.511 174.328 186.342C172.725 184.024 170.96 181.608 170.269 180.522C170.031 180.149 169.484 179.556 168.707 178.816C167.943 178.087 166.991 177.247 165.978 176.388C163.96 174.678 161.714 172.901 160.255 171.783L154.052 167.728L149.258 164.959C149.326 167.097 149.528 171.364 149.999 177.37C150.709 186.423 152.571 190.432 153.506 193.386C155.596 197.552 156.329 198.828 156.686 199.396C156.843 199.647 156.973 199.824 157.099 200.043C157.235 200.282 157.399 200.615 157.706 201.296L157.711 201.307L157.715 201.319C157.798 201.53 158.034 201.916 158.431 202.465C158.817 203.001 159.329 203.654 159.926 204.386C161.121 205.85 162.649 207.614 164.194 209.356C167.253 212.807 170.363 216.158 171.046 216.897C171.134 216.966 171.234 217.054 171.33 217.15C171.46 217.279 171.615 217.444 171.791 217.637C172.144 218.024 172.592 218.542 173.111 219.156C174.148 220.383 175.478 222.01 176.905 223.782C179.762 227.326 183.023 231.465 185.154 234.195L185.159 234.202L185.165 234.209C186.912 236.632 191.001 242.541 193.357 246.769C196.326 252.099 198.859 260.11 199.066 270.839C199.169 276.201 198.756 279.613 197.803 282.993C196.858 286.343 195.376 289.672 193.387 294.814C191.348 300.084 187.889 304.07 184.872 306.927C183.364 308.356 181.959 309.509 180.899 310.394C180.365 310.839 179.927 311.211 179.601 311.518C179.257 311.842 179.101 312.039 179.057 312.136C178.915 312.451 178.594 312.77 178.231 313.07C177.847 313.386 177.343 313.74 176.748 314.119C175.557 314.876 173.967 315.753 172.172 316.652C168.582 318.449 164.131 320.352 160.328 321.572C157.242 322.562 153.374 322.928 149.819 322.991C146.257 323.054 142.969 322.813 141.022 322.57L141.016 322.569C138.231 322.191 135.596 322.207 131.793 320.972C127.981 319.734 122.982 317.246 115.289 311.878C102.873 303.214 97.6327 289.061 96.5559 283.038C94.675 272.802 94.8739 266.278 95.6115 262.068C95.9806 259.962 96.4833 258.44 96.9211 257.33C97.1387 256.779 97.3419 256.327 97.4963 255.971C97.6571 255.601 97.7521 255.361 97.7912 255.19C98.3719 252.623 99.7215 249.754 101.113 247.24C102.497 244.741 103.942 242.556 104.768 241.313C105.611 239.411 107.863 236.165 110.297 232.917C112.763 229.627 115.461 226.276 117.193 224.195V224.196C118.768 222.298 121.187 219.421 123.327 216.962C124.397 215.733 125.4 214.604 126.194 213.753C126.59 213.329 126.938 212.969 127.218 212.699C127.358 212.564 127.485 212.447 127.596 212.355C127.698 212.269 127.813 212.179 127.925 212.123C127.982 212.095 128.145 211.967 128.428 211.682C128.692 211.416 129.016 211.058 129.385 210.633C130.122 209.784 131.016 208.688 131.924 207.565C132.829 206.445 133.749 205.297 134.527 204.354C135.293 203.425 135.955 202.653 136.336 202.313C136.457 202.205 136.637 201.983 136.865 201.633C137.088 201.293 137.34 200.861 137.612 200.362C138.155 199.364 138.766 198.119 139.374 196.834C140.58 194.287 141.79 191.551 142.385 190.409C142.589 190.016 142.829 189.246 143.082 188.204C143.331 187.177 143.582 185.933 143.82 184.625C144.292 182.023 144.707 179.189 144.947 177.367L145.357 169.967V165.197C143.878 166.09 139.989 168.553 134.297 172.462C126.811 177.604 124.271 181.221 122.18 183.508C119.617 187.401 118.879 188.673 118.566 189.266C118.427 189.528 118.338 189.729 118.211 189.948C118.073 190.185 117.867 190.493 117.43 191.1L117.423 191.11L117.415 191.12C117.274 191.297 117.057 191.694 116.78 192.312C116.509 192.914 116.199 193.684 115.863 194.568C115.193 196.335 114.43 198.54 113.694 200.748C112.235 205.124 110.888 209.494 110.589 210.454C110.573 210.565 110.547 210.694 110.512 210.826C110.465 211.003 110.4 211.219 110.321 211.468C110.161 211.967 109.937 212.615 109.665 213.371C109.121 214.883 108.377 216.847 107.557 218.97C105.916 223.217 103.961 228.11 102.662 231.32L102.659 231.328L102.655 231.337C101.431 234.062 98.3577 240.557 95.8742 244.71C92.7431 249.947 87.0729 256.146 77.884 261.69C73.2916 264.461 70.1308 265.809 66.7268 266.673C63.3524 267.53 59.7289 267.911 54.2815 268.759C48.6973 269.629 43.5162 268.626 39.5334 267.442C37.5425 266.85 35.8415 266.21 34.5451 265.735C33.8928 265.496 33.3515 265.301 32.9221 265.172C32.4698 265.036 32.2218 265 32.1154 265.01C31.7718 265.045 31.3345 264.927 30.8938 264.762C30.4281 264.588 29.869 264.328 29.2444 264.002C27.9931 263.349 26.4379 262.411 24.7619 261.306C21.4101 259.095 17.5364 256.192 14.5793 253.509C12.1788 251.331 9.92797 248.164 8.09592 245.117C6.26045 242.064 4.82484 239.095 4.06174 237.288L4.05978 237.283C2.99403 234.682 1.66368 232.408 0.831268 228.497C-0.00296495 224.576 -0.348125 219.003 0.454315 209.657C1.74975 194.572 11.3867 182.957 16.0647 179.013C23.9884 172.266 29.7378 169.177 33.7531 167.71C35.7616 166.977 37.3297 166.652 38.51 166.476C39.0966 166.389 39.5893 166.339 39.9748 166.294C40.3763 166.248 40.6309 166.211 40.799 166.16C43.3124 165.379 46.4711 165.113 49.3449 165.061C52.2005 165.009 54.8157 165.168 56.3049 165.262C58.3734 165.041 62.3109 165.369 66.341 165.853C70.4238 166.343 74.6736 167.004 77.342 167.463V167.464C79.7734 167.88 83.4736 168.537 86.6731 169.161C88.2722 169.472 89.7514 169.777 90.885 170.038C91.4508 170.169 91.9368 170.29 92.3108 170.398C92.4975 170.452 92.6627 170.504 92.7981 170.553C92.9231 170.599 93.0581 170.654 93.1623 170.722C93.2152 170.757 93.4079 170.835 93.7961 170.937C94.1583 171.032 94.6306 171.135 95.1828 171.242C96.2867 171.455 97.6832 171.682 99.1096 171.907C100.532 172.131 101.986 172.353 103.192 172.555C104.38 172.754 105.379 172.942 105.864 173.102C106.019 173.153 106.301 173.197 106.718 173.22C107.124 173.243 107.624 173.245 108.192 173.231C109.327 173.202 110.712 173.109 112.128 172.994C114.937 172.765 117.912 172.444 119.198 172.388C119.64 172.369 120.427 172.191 121.456 171.889C122.47 171.591 123.673 171.187 124.924 170.739C127.415 169.846 130.076 168.79 131.774 168.085L138.387 164.741L143.632 161.711L139.387 159.261L132.774 155.916C131.076 155.212 128.414 154.155 125.924 153.263C124.673 152.815 123.47 152.41 122.456 152.113C121.427 151.81 120.641 151.633 120.198 151.614C118.912 151.558 115.937 151.237 113.128 151.008C111.712 150.893 110.327 150.799 109.192 150.771C108.624 150.757 108.124 150.759 107.718 150.782C107.301 150.805 107.019 150.849 106.864 150.9C106.379 151.06 105.38 151.248 104.192 151.447C102.986 151.649 101.532 151.871 100.11 152.095C98.6831 152.32 97.2867 152.547 96.1828 152.76C95.6305 152.867 95.1584 152.969 94.7961 153.064C94.4077 153.166 94.2153 153.244 94.1623 153.279C94.0579 153.347 93.9224 153.403 93.7971 153.449C93.6617 153.498 93.4973 153.55 93.3108 153.604C92.9368 153.711 92.4509 153.833 91.885 153.963C90.7514 154.225 89.2722 154.529 87.6731 154.841C84.4734 155.465 80.7724 156.122 78.341 156.538H78.342C75.6735 156.997 71.4231 157.658 67.3401 158.148C63.3101 158.632 59.3734 158.96 57.3049 158.739C55.8158 158.833 53.2006 158.992 50.3449 158.941C47.4711 158.889 44.3124 158.623 41.799 157.842C41.6309 157.79 41.3764 157.753 40.9748 157.707C40.5893 157.663 40.0967 157.613 39.51 157.526C38.3297 157.35 36.7616 157.025 34.7531 156.291C30.7378 154.825 24.9883 151.735 17.0647 144.989C12.3866 141.044 2.74957 129.429 1.45431 114.344C0.651881 104.998 0.996986 99.4244 1.83127 95.5043C2.6637 91.5934 3.99407 89.3201 5.05978 86.7192L5.06174 86.7143C5.82485 84.9064 7.26041 81.9382 9.09592 78.8852C10.928 75.8378 13.1787 72.6708 15.5793 70.4926C18.5365 67.8095 22.41 64.9063 25.7619 62.6957C27.4378 61.5904 28.9921 60.6523 30.2434 59.9994C30.868 59.6735 31.427 59.4135 31.8928 59.2397C32.3336 59.0752 32.7707 58.9571 33.1145 58.9916C33.2206 59.0021 33.4692 58.9655 33.9221 58.8295C34.3515 58.7006 34.8919 58.5061 35.5442 58.267C36.8407 57.7917 38.5421 57.151 40.5334 56.559C44.5163 55.375 49.6973 54.3731 55.2815 55.2426C60.7289 56.0908 64.3524 56.4717 67.7268 57.3285C71.1308 58.1929 74.2907 59.5413 78.883 62.3119C88.0719 67.8558 93.743 74.054 96.8742 79.2904C99.3578 83.444 102.431 89.9402 103.655 92.6645L103.659 92.6733L103.662 92.682C104.961 95.8922 106.916 100.785 108.557 105.032C109.377 107.154 110.121 109.119 110.665 110.631C110.937 111.387 111.161 112.034 111.321 112.533C111.4 112.782 111.465 112.999 111.512 113.176C111.547 113.308 111.573 113.437 111.589 113.548C111.888 114.508 113.235 118.878 114.694 123.253C115.43 125.462 116.193 127.667 116.863 129.434C117.199 130.318 117.509 131.087 117.78 131.689C118.057 132.307 118.273 132.705 118.414 132.882L118.423 132.892L118.43 132.901C118.867 133.508 119.073 133.816 119.211 134.054C119.338 134.273 119.427 134.473 119.566 134.735C119.879 135.328 120.616 136.6 123.18 140.494C125.271 142.781 127.811 146.397 135.297 151.539C139.988 154.762 143.455 157.001 145.357 158.189V153.034L144.947 145.634C144.707 143.811 144.292 140.978 143.82 138.375C143.582 137.068 143.331 135.824 143.082 134.797C142.829 133.755 142.589 132.984 142.385 132.592C141.79 131.45 140.58 128.713 139.374 126.166C138.766 124.882 138.155 123.637 137.612 122.639C137.34 122.14 137.088 121.708 136.865 121.368C136.637 121.018 136.457 120.796 136.336 120.688C135.955 120.347 135.293 119.576 134.527 118.647C133.749 117.704 132.829 116.556 131.924 115.436C131.016 114.313 130.122 113.217 129.385 112.368C129.016 111.943 128.691 111.585 128.428 111.319C128.146 111.034 127.982 110.906 127.925 110.877C127.814 110.821 127.698 110.731 127.596 110.646C127.486 110.553 127.358 110.437 127.218 110.302C126.938 110.032 126.589 109.672 126.194 109.247C125.4 108.397 124.397 107.267 123.327 106.038C121.187 103.58 118.768 100.703 117.193 98.8051V98.8061C115.461 96.7247 112.763 93.374 110.297 90.0834C107.863 86.8354 105.611 83.5896 104.768 81.6879C103.942 80.4451 102.497 78.2596 101.113 75.7611C99.7216 73.2465 98.3717 70.3778 97.7912 67.811C97.752 67.6394 97.657 67.3999 97.4963 67.0297C97.3419 66.6739 97.1386 66.2218 96.9211 65.6703C96.4833 64.5602 95.9805 63.039 95.6115 60.933C94.874 56.7223 94.6749 50.1982 96.5559 39.9633C97.6331 33.9393 102.873 19.7864 115.289 11.1225C122.982 5.7543 127.981 3.26624 131.793 2.02873C135.597 0.794063 138.23 0.809575 141.016 0.432048L141.022 0.431072C142.969 0.188039 146.257 -0.0528719 149.819 0.0101731Z" fill="#92140C"/>
</g>
<defs>
<filter id="filter0_i_10_61" x="0" y="0" width="294.615" height="324.601" filterUnits="userSpaceOnUse" color-interpolation-filters="sRGB">
<feFlood flood-opacity="0" result="BackgroundImageFix"/>
<feBlend mode="normal" in="SourceGraphic" in2="BackgroundImageFix" result="shape"/>
<feColorMatrix in="SourceAlpha" type="matrix" values="0 0 0 0 0 0 0 0 0 0 0 0 0 0 0 0 0 0 127 0" result="hardAlpha"/>
<feOffset dy="5"/>
<feGaussianBlur stdDeviation="0.8"/>
<feComposite in2="hardAlpha" operator="arithmetic" k2="-1" k3="1"/>
<feColorMatrix type="matrix" values="0 0 0 0 0 0 0 0 0 0 0 0 0 0 0 0 0 0 0.25 0"/>
<feBlend mode="normal" in2="shape" result="effect1_innerShadow_10_61"/>
</filter>
</defs>
</svg>
