<svg width="438" height="381" viewBox="0 0 438 381" fill="none" xmlns="http://www.w3.org/2000/svg">
<rect width="438" height="381" fill="#101010"/>
<g filter="url(#filter0_ign_10_75)">
<path fill-rule="evenodd" clip-rule="evenodd" d="M221.819 28.0102C225.374 28.0731 229.242 28.4393 232.328 29.4291C236.13 30.6485 240.582 32.5516 244.172 34.349C245.967 35.2477 247.557 36.1251 248.748 36.8822C249.343 37.2602 249.847 37.6147 250.231 37.9311C250.593 38.2304 250.915 38.5499 251.057 38.8647C251.101 38.9618 251.257 39.1587 251.601 39.4828C251.927 39.7902 252.366 40.1617 252.899 40.6069C253.958 41.4919 255.364 42.6453 256.872 44.0737C259.889 46.9308 263.348 50.9166 265.387 56.1869C267.376 61.3284 268.858 64.6577 269.803 68.0082C270.756 71.3882 271.169 74.7995 271.066 80.1615C270.859 90.8912 268.326 98.9019 265.357 104.232C263.002 108.459 258.912 114.369 257.165 116.791L257.159 116.799L257.154 116.806C255.023 119.536 251.762 123.675 248.905 127.219C247.477 128.991 246.148 130.617 245.111 131.845C244.592 132.458 244.144 132.976 243.791 133.364C243.615 133.557 243.46 133.722 243.33 133.851C243.234 133.947 243.134 134.034 243.046 134.104C242.365 134.842 239.254 138.193 236.194 141.645C234.649 143.387 233.121 145.151 231.926 146.615C231.328 147.347 230.817 148 230.431 148.536C230.034 149.085 229.798 149.471 229.715 149.682L229.711 149.694L229.706 149.705C229.399 150.386 229.235 150.719 229.099 150.957C228.973 151.177 228.843 151.354 228.686 151.605C228.329 152.173 227.596 153.448 225.506 157.615C224.571 160.569 222.709 164.577 221.999 173.631C221.494 180.07 221.296 184.51 221.244 186.471L225.052 184.274L231.255 180.219C232.714 179.101 234.96 177.324 236.978 175.614C237.991 174.755 238.943 173.915 239.707 173.186C240.484 172.445 241.031 171.853 241.269 171.48C241.96 170.393 243.725 167.978 245.328 165.66C246.136 164.491 246.909 163.339 247.501 162.37C247.797 161.885 248.046 161.451 248.23 161.087C248.418 160.714 248.521 160.449 248.554 160.289C248.658 159.789 248.995 158.83 249.416 157.702C249.844 156.557 250.379 155.186 250.896 153.842C251.414 152.494 251.916 151.172 252.283 150.109C252.467 149.577 252.614 149.117 252.713 148.755C252.819 148.368 252.848 148.162 252.844 148.099C252.837 147.974 252.857 147.83 252.88 147.699C252.905 147.557 252.942 147.388 252.988 147.2C253.082 146.822 253.22 146.341 253.39 145.786C253.73 144.673 254.207 143.239 254.737 141.699C255.796 138.616 257.077 135.082 257.933 132.769H257.932C258.868 130.228 260.421 126.217 262.038 122.436C263.634 118.704 265.319 115.131 266.544 113.45C267.208 112.113 268.378 109.769 269.85 107.322C271.332 104.859 273.142 102.256 275.074 100.47C275.203 100.35 275.362 100.148 275.603 99.8236C275.834 99.5119 276.123 99.1102 276.492 98.6459C277.235 97.7116 278.301 96.5158 279.941 95.143C283.218 92.3988 288.769 88.9647 298.573 85.476C304.329 83.3969 319.206 80.858 332.917 87.2787C341.413 91.2569 346.066 94.3423 349.044 97.0248C352.015 99.7013 353.319 101.991 355.038 104.214L355.042 104.218C356.226 105.783 358.079 108.51 359.805 111.626C361.528 114.737 363.145 118.27 363.831 121.438C364.676 125.34 365.254 130.147 365.492 134.155C365.612 136.159 365.646 137.974 365.586 139.384C365.556 140.088 365.501 140.702 365.419 141.193C365.341 141.657 365.225 142.094 365.024 142.374C364.961 142.461 364.869 142.694 364.76 143.155C364.657 143.591 364.555 144.157 364.436 144.841C364.199 146.202 363.903 147.995 363.42 150.015C362.454 154.056 360.733 159.045 357.188 163.446C353.729 167.739 351.587 170.687 349.157 173.181C346.707 175.697 343.959 177.759 339.264 180.351C329.868 185.537 321.664 187.348 315.564 187.442C310.725 187.516 303.562 186.93 300.591 186.628L300.581 186.626L300.572 186.625C297.143 186.145 291.929 185.391 287.431 184.689C285.182 184.338 283.109 184 281.528 183.715C280.737 183.573 280.064 183.443 279.552 183.331C279.297 183.276 279.076 183.224 278.9 183.176C278.769 183.141 278.643 183.099 278.539 183.057C277.559 182.836 273.101 181.817 268.582 180.893C266.301 180.426 264.009 179.985 262.144 179.682C261.211 179.531 260.39 179.414 259.733 179.347C259.059 179.278 258.606 179.268 258.382 179.301L258.37 179.303L258.359 179.304C257.614 179.378 257.245 179.404 256.97 179.405C256.717 179.406 256.499 179.382 256.202 179.371C255.532 179.345 254.062 179.349 249.407 179.622C246.381 180.29 241.979 180.681 233.783 184.593C229.024 186.865 225.522 188.648 223.458 189.735C225.264 190.709 229.14 192.715 234.783 195.409C242.98 199.321 247.381 199.712 250.407 200.379C255.062 200.653 256.532 200.655 257.202 200.63C257.498 200.619 257.716 200.596 257.969 200.597C258.244 200.598 258.614 200.622 259.359 200.697L259.382 200.701C259.606 200.734 260.058 200.723 260.733 200.654C261.39 200.587 262.211 200.471 263.144 200.32C265.009 200.017 267.301 199.575 269.581 199.109C274.1 198.185 278.558 197.166 279.538 196.945C279.643 196.903 279.768 196.861 279.9 196.826C280.076 196.778 280.296 196.725 280.552 196.669C281.064 196.558 281.736 196.429 282.527 196.287C284.109 196.002 286.182 195.664 288.431 195.313C292.929 194.611 298.143 193.857 301.572 193.376L301.581 193.374L301.591 193.373C304.562 193.072 311.725 192.485 316.564 192.559C322.664 192.652 330.868 194.465 340.264 199.651C344.959 202.243 347.707 204.305 350.157 206.821C352.587 209.315 354.728 212.262 358.187 216.556C361.732 220.957 363.454 225.945 364.42 229.986C364.903 232.006 365.199 233.8 365.436 235.161C365.555 235.845 365.657 236.411 365.76 236.847C365.869 237.307 365.961 237.541 366.024 237.627C366.225 237.908 366.341 238.345 366.419 238.809C366.501 239.299 366.556 239.914 366.586 240.618C366.646 242.028 366.611 243.843 366.491 245.847C366.253 249.855 365.676 254.661 364.831 258.564C364.145 261.732 362.528 265.265 360.805 268.375C359.079 271.492 357.226 274.219 356.042 275.784L356.038 275.788C354.319 278.011 353.015 280.3 350.044 282.976C347.066 285.659 342.412 288.744 333.916 292.722C320.205 299.143 305.329 296.605 299.573 294.526C289.769 291.037 284.218 287.603 280.941 284.859C279.301 283.486 278.235 282.29 277.492 281.356C277.123 280.891 276.834 280.49 276.603 280.178C276.362 279.853 276.202 279.651 276.073 279.532C274.141 277.745 272.332 275.143 270.85 272.68C269.377 270.233 268.207 267.888 267.544 266.551C266.319 264.87 264.634 261.297 263.038 257.565C261.421 253.784 259.868 249.772 258.932 247.232L258.933 247.233C258.077 244.92 256.795 241.386 255.736 238.303C255.206 236.762 254.73 235.329 254.39 234.216C254.22 233.661 254.082 233.18 253.988 232.802C253.942 232.614 253.905 232.445 253.88 232.303C253.857 232.172 253.837 232.026 253.844 231.902C253.848 231.838 253.819 231.632 253.713 231.246C253.614 230.884 253.467 230.424 253.283 229.893C252.916 228.83 252.414 227.507 251.896 226.16C251.378 224.815 250.844 223.445 250.416 222.3C249.995 221.172 249.658 220.213 249.554 219.712C249.521 219.553 249.418 219.288 249.23 218.914C249.046 218.551 248.798 218.117 248.501 217.632C247.909 216.663 247.137 215.511 246.328 214.342C244.725 212.024 242.96 209.608 242.269 208.522C242.031 208.149 241.484 207.556 240.707 206.816C239.943 206.087 238.991 205.247 237.978 204.388C235.96 202.678 233.714 200.901 232.255 199.783L226.052 195.728L221.258 192.959C221.326 195.097 221.528 199.364 221.999 205.37C222.709 214.423 224.571 218.432 225.506 221.386C227.596 225.552 228.329 226.828 228.686 227.396C228.843 227.647 228.973 227.824 229.099 228.043C229.235 228.282 229.399 228.615 229.706 229.296L229.711 229.307L229.715 229.319C229.798 229.53 230.034 229.916 230.431 230.465C230.817 231.001 231.329 231.654 231.926 232.386C233.121 233.85 234.649 235.614 236.194 237.356C239.253 240.807 242.363 244.158 243.046 244.897C243.134 244.966 243.234 245.054 243.33 245.15C243.46 245.279 243.615 245.444 243.791 245.637C244.144 246.024 244.592 246.542 245.111 247.156C246.148 248.383 247.478 250.01 248.905 251.782C251.762 255.326 255.023 259.465 257.154 262.195L257.159 262.202L257.165 262.209C258.912 264.632 263.001 270.541 265.357 274.769C268.326 280.099 270.859 288.11 271.066 298.839C271.169 304.201 270.756 307.613 269.803 310.993C268.858 314.343 267.376 317.672 265.387 322.814C263.348 328.084 259.889 332.07 256.872 334.927C255.364 336.356 253.959 337.509 252.899 338.394C252.365 338.839 251.927 339.211 251.601 339.518C251.257 339.842 251.101 340.039 251.057 340.136C250.915 340.451 250.594 340.77 250.231 341.07C249.847 341.386 249.343 341.74 248.748 342.119C247.557 342.876 245.967 343.753 244.172 344.652C240.582 346.449 236.131 348.352 232.328 349.572C229.242 350.562 225.374 350.928 221.819 350.991C218.257 351.054 214.969 350.813 213.022 350.57L213.016 350.569C210.231 350.191 207.596 350.207 203.793 348.972C199.981 347.734 194.982 345.246 187.289 339.878C174.873 331.214 169.633 317.061 168.556 311.038C166.675 300.802 166.874 294.278 167.612 290.068C167.981 287.962 168.483 286.44 168.921 285.33C169.139 284.779 169.342 284.327 169.496 283.971C169.657 283.601 169.752 283.361 169.791 283.19C170.372 280.623 171.722 277.754 173.113 275.24C174.497 272.741 175.942 270.556 176.768 269.313C177.611 267.411 179.863 264.165 182.297 260.917C184.763 257.627 187.461 254.276 189.193 252.195V252.196C190.768 250.298 193.187 247.421 195.327 244.962C196.397 243.733 197.4 242.604 198.194 241.753C198.59 241.329 198.938 240.969 199.218 240.699C199.358 240.564 199.485 240.447 199.596 240.355C199.698 240.269 199.813 240.179 199.925 240.123C199.982 240.095 200.145 239.967 200.428 239.682C200.692 239.416 201.016 239.058 201.385 238.633C202.122 237.784 203.016 236.688 203.924 235.565C204.829 234.445 205.749 233.297 206.527 232.354C207.293 231.425 207.955 230.653 208.336 230.313C208.457 230.205 208.637 229.983 208.865 229.633C209.088 229.293 209.34 228.861 209.612 228.362C210.155 227.364 210.766 226.119 211.374 224.834C212.58 222.287 213.79 219.551 214.385 218.409C214.589 218.016 214.829 217.246 215.082 216.204C215.331 215.177 215.582 213.933 215.82 212.625C216.292 210.023 216.707 207.189 216.947 205.367L217.357 197.967V193.197C215.878 194.09 211.989 196.553 206.297 200.462C198.811 205.604 196.271 209.221 194.18 211.508C191.617 215.401 190.879 216.673 190.566 217.266C190.427 217.528 190.338 217.729 190.211 217.948C190.073 218.185 189.867 218.493 189.43 219.1L189.423 219.11L189.415 219.12C189.274 219.297 189.057 219.694 188.78 220.312C188.509 220.914 188.199 221.684 187.863 222.568C187.193 224.335 186.43 226.54 185.694 228.748C184.235 233.124 182.888 237.494 182.589 238.454C182.573 238.565 182.547 238.694 182.512 238.826C182.465 239.003 182.4 239.219 182.321 239.468C182.161 239.967 181.937 240.615 181.665 241.371C181.121 242.883 180.377 244.847 179.557 246.97C177.916 251.217 175.961 256.11 174.662 259.32L174.659 259.328L174.655 259.337C173.431 262.062 170.358 268.557 167.874 272.71C164.743 277.947 159.073 284.146 149.884 289.69C145.292 292.461 142.131 293.809 138.727 294.673C135.352 295.53 131.729 295.911 126.281 296.759C120.697 297.629 115.516 296.626 111.533 295.442C109.543 294.85 107.841 294.21 106.545 293.735C105.893 293.496 105.352 293.301 104.922 293.172C104.47 293.036 104.222 293 104.115 293.01C103.772 293.045 103.335 292.927 102.894 292.762C102.428 292.588 101.869 292.328 101.244 292.002C99.9931 291.349 98.4379 290.411 96.7619 289.306C93.4101 287.095 89.5364 284.192 86.5793 281.509C84.1788 279.331 81.928 276.164 80.0959 273.117C78.2604 270.064 76.8248 267.095 76.0617 265.288L76.0598 265.283C74.994 262.682 73.6637 260.408 72.8313 256.497C71.997 252.576 71.6519 247.003 72.4543 237.657C73.7497 222.572 83.3867 210.957 88.0647 207.013C95.9884 200.266 101.738 197.177 105.753 195.71C107.762 194.977 109.33 194.652 110.51 194.476C111.097 194.389 111.589 194.339 111.975 194.294C112.376 194.248 112.631 194.211 112.799 194.16C115.312 193.379 118.471 193.113 121.345 193.061C124.2 193.009 126.816 193.168 128.305 193.262C130.373 193.041 134.311 193.369 138.341 193.853C142.424 194.343 146.674 195.004 149.342 195.463V195.464C151.773 195.88 155.474 196.537 158.673 197.161C160.272 197.472 161.751 197.777 162.885 198.038C163.451 198.169 163.937 198.29 164.311 198.398C164.497 198.452 164.663 198.504 164.798 198.553C164.923 198.599 165.058 198.654 165.162 198.722C165.215 198.757 165.408 198.835 165.796 198.937C166.158 199.032 166.631 199.135 167.183 199.242C168.287 199.455 169.683 199.682 171.11 199.907C172.532 200.131 173.986 200.353 175.192 200.555C176.38 200.754 177.379 200.942 177.864 201.102C178.019 201.153 178.301 201.197 178.718 201.22C179.124 201.243 179.624 201.245 180.192 201.231C181.327 201.202 182.712 201.109 184.128 200.994C186.937 200.765 189.912 200.444 191.198 200.388C191.64 200.369 192.427 200.191 193.456 199.889C194.47 199.591 195.673 199.187 196.924 198.739C199.415 197.846 202.076 196.79 203.774 196.085L210.387 192.741L215.632 189.711L211.387 187.261L204.774 183.916C203.076 183.212 200.414 182.155 197.924 181.263C196.673 180.815 195.47 180.41 194.456 180.113C193.427 179.81 192.641 179.633 192.198 179.614C190.912 179.558 187.937 179.237 185.128 179.008C183.712 178.893 182.327 178.799 181.192 178.771C180.624 178.757 180.124 178.759 179.718 178.782C179.301 178.805 179.019 178.849 178.864 178.9C178.379 179.06 177.38 179.248 176.192 179.447C174.986 179.649 173.532 179.871 172.11 180.095C170.683 180.32 169.287 180.547 168.183 180.76C167.631 180.867 167.158 180.969 166.796 181.064C166.408 181.166 166.215 181.244 166.162 181.279C166.058 181.347 165.922 181.403 165.797 181.449C165.662 181.498 165.497 181.55 165.311 181.604C164.937 181.711 164.451 181.833 163.885 181.963C162.751 182.225 161.272 182.529 159.673 182.841C156.473 183.465 152.772 184.122 150.341 184.538H150.342C147.674 184.997 143.423 185.658 139.34 186.148C135.31 186.632 131.373 186.96 129.305 186.739C127.816 186.833 125.201 186.992 122.345 186.941C119.471 186.889 116.312 186.623 113.799 185.842C113.631 185.79 113.376 185.753 112.975 185.707C112.589 185.663 112.097 185.613 111.51 185.526C110.33 185.35 108.762 185.025 106.753 184.291C102.738 182.825 96.9883 179.735 89.0647 172.989C84.3866 169.044 74.7496 157.429 73.4543 142.344C72.6519 132.998 72.997 127.424 73.8313 123.504C74.6637 119.593 75.9941 117.32 77.0598 114.719L77.0617 114.714C77.8249 112.906 79.2604 109.938 81.0959 106.885C82.928 103.838 85.1787 100.671 87.5793 98.4926C90.5365 95.8095 94.41 92.9063 97.7619 90.6957C99.4378 89.5904 100.992 88.6523 102.243 87.9994C102.868 87.6735 103.427 87.4135 103.893 87.2397C104.334 87.0752 104.771 86.9571 105.114 86.9916C105.221 87.0021 105.469 86.9655 105.922 86.8295C106.351 86.7006 106.892 86.5061 107.544 86.267C108.841 85.7917 110.542 85.151 112.533 84.559C116.516 83.375 121.697 82.3731 127.281 83.2426C132.729 84.0908 136.352 84.4717 139.727 85.3285C143.131 86.1929 146.291 87.5413 150.883 90.3119C160.072 95.8558 165.743 102.054 168.874 107.29C171.358 111.444 174.431 117.94 175.655 120.664L175.659 120.673L175.662 120.682C176.961 123.892 178.916 128.785 180.557 133.032C181.377 135.154 182.121 137.119 182.665 138.631C182.937 139.387 183.161 140.034 183.321 140.533C183.4 140.782 183.465 140.999 183.512 141.176C183.547 141.308 183.573 141.437 183.589 141.548C183.888 142.508 185.235 146.878 186.694 151.253C187.43 153.462 188.193 155.667 188.863 157.434C189.199 158.318 189.509 159.087 189.78 159.689C190.057 160.307 190.273 160.705 190.414 160.882L190.423 160.892L190.43 160.901C190.867 161.508 191.073 161.816 191.211 162.054C191.338 162.273 191.427 162.473 191.566 162.735C191.879 163.328 192.616 164.6 195.18 168.494C197.271 170.781 199.811 174.397 207.297 179.539C211.988 182.762 215.455 185.001 217.357 186.189V181.034L216.947 173.634C216.707 171.811 216.292 168.978 215.82 166.375C215.582 165.068 215.331 163.824 215.082 162.797C214.829 161.755 214.589 160.984 214.385 160.592C213.79 159.45 212.58 156.713 211.374 154.166C210.766 152.882 210.155 151.637 209.612 150.639C209.34 150.14 209.088 149.708 208.865 149.368C208.637 149.018 208.457 148.796 208.336 148.688C207.955 148.347 207.293 147.576 206.527 146.647C205.749 145.704 204.829 144.556 203.924 143.436C203.016 142.313 202.122 141.217 201.385 140.368C201.016 139.943 200.691 139.585 200.428 139.319C200.146 139.034 199.982 138.906 199.925 138.877C199.814 138.821 199.698 138.731 199.596 138.646C199.486 138.553 199.358 138.437 199.218 138.302C198.938 138.032 198.589 137.672 198.194 137.247C197.4 136.397 196.397 135.267 195.327 134.038C193.187 131.58 190.768 128.703 189.193 126.805V126.806C187.461 124.725 184.763 121.374 182.297 118.083C179.863 114.835 177.611 111.59 176.768 109.688C175.942 108.445 174.497 106.26 173.113 103.761C171.722 101.247 170.372 98.3778 169.791 95.811C169.752 95.6394 169.657 95.3999 169.496 95.0297C169.342 94.6739 169.139 94.2218 168.921 93.6703C168.483 92.5602 167.981 91.039 167.612 88.933C166.874 84.7223 166.675 78.1982 168.556 67.9633C169.633 61.9393 174.873 47.7864 187.289 39.1225C194.982 33.7543 199.981 31.2662 203.793 30.0287C207.597 28.7941 210.23 28.8096 213.016 28.432L213.022 28.4311C214.969 28.188 218.257 27.9471 221.819 28.0102Z" fill="#92140C"/>
</g>
<defs>
<filter id="filter0_ign_10_75" x="69.7" y="25.7" width="299.215" height="327.601" filterUnits="userSpaceOnUse" color-interpolation-filters="sRGB">
<feFlood flood-opacity="0" result="BackgroundImageFix"/>
<feBlend mode="normal" in="SourceGraphic" in2="BackgroundImageFix" result="shape"/>
<feColorMatrix in="SourceAlpha" type="matrix" values="0 0 0 0 0 0 0 0 0 0 0 0 0 0 0 0 0 0 127 0" result="hardAlpha"/>
<feOffset dy="5"/>
<feGaussianBlur stdDeviation="0.8"/>
<feComposite in2="hardAlpha" operator="arithmetic" k2="-1" k3="1"/>
<feColorMatrix type="matrix" values="0 0 0 0 0 0 0 0 0 0 0 0 0 0 0 0 0 0 0.25 0"/>
<feBlend mode="normal" in2="shape" result="effect1_innerShadow_10_75"/>
<feTurbulence type="fractalNoise" baseFrequency="1.6666666269302368 1.6666666269302368" numOctaves="3" seed="248" />
<feDisplacementMap in="effect1_innerShadow_10_75" scale="4.5999999046325684" xChannelSelector="R" yChannelSelector="G" result="displacedImage" width="100%" height="100%" />
<feMerge result="effect2_texture_10_75">
<feMergeNode in="displacedImage"/>
</feMerge>
<feTurbulence type="fractalNoise" baseFrequency="10 10" stitchTiles="stitch" numOctaves="3" result="noise" seed="549" />
<feColorMatrix in="noise" type="luminanceToAlpha" result="alphaNoise" />
<feComponentTransfer in="alphaNoise" result="coloredNoise1">
<feFuncA type="discrete" tableValues="0 0 0 0 0 0 0 1 1 1 1 1 1 1 1 1 1 1 1 1 1 1 1 1 1 1 1 1 1 1 1 1 1 1 1 1 1 1 1 1 1 1 0 0 0 0 0 0 0 0 0 0 0 0 0 0 0 0 0 0 0 0 0 0 0 0 0 0 0 0 0 0 0 0 0 0 0 0 0 0 0 0 0 0 0 0 0 0 0 0 0 0 0 0 0 0 0 0 0 0 "/>
</feComponentTransfer>
<feComposite operator="in" in2="effect2_texture_10_75" in="coloredNoise1" result="noise1Clipped" />
<feFlood flood-color="rgba(0, 0, 0, 0.25)" result="color1Flood" />
<feComposite operator="in" in2="noise1Clipped" in="color1Flood" result="color1" />
<feMerge result="effect3_noise_10_75">
<feMergeNode in="effect2_texture_10_75" />
<feMergeNode in="color1" />
</feMerge>
</filter>
</defs>
</svg>
