<svg width="297" height="325" viewBox="0 0 297 325" fill="none" xmlns="http://www.w3.org/2000/svg">
<path d="M150.819 1.00977L150.837 0.00992244L150.837 0.0099223L150.819 1.00977ZM161.329 2.42871L161.634 1.47648L161.634 1.47648L161.329 2.42871ZM173.173 7.34863L173.621 6.45444L173.621 6.45443L173.173 7.34863ZM177.749 9.88184L178.286 9.03795L178.286 9.03794L177.749 9.88184ZM179.231 10.9307L179.868 10.1594L179.868 10.1594L179.231 10.9307ZM180.058 11.8643L179.146 12.2753L179.146 12.2761L180.058 11.8643ZM180.602 12.4824L179.916 13.2103L179.916 13.2103L180.602 12.4824ZM181.899 13.6064L181.258 14.374L181.258 14.374L181.899 13.6064ZM185.873 17.0732L186.561 16.3472L186.561 16.3472L185.873 17.0732ZM194.388 29.1865L195.32 28.8257L195.32 28.8257L194.388 29.1865ZM198.804 41.0078L199.766 40.7363L199.766 40.7363L198.804 41.0078ZM200.066 53.1611L201.066 53.1804L201.066 53.1804L200.066 53.1611ZM194.357 77.2314L195.231 77.7181L195.231 77.7181L194.357 77.2314ZM186.166 89.791L186.966 90.391L186.972 90.3835L186.977 90.3759L186.166 89.791ZM186.16 89.7988L186.919 90.4496L186.941 90.4249L186.96 90.3988L186.16 89.7988ZM186.154 89.8057L185.395 89.1549L185.38 89.1723L185.366 89.1903L186.154 89.8057ZM177.906 100.219L178.685 100.846L178.685 100.846L177.906 100.219ZM174.111 104.845L174.875 105.49L174.875 105.49L174.111 104.845ZM172.792 106.363L173.532 107.036L173.532 107.036L172.792 106.363ZM172.331 106.851L173.036 107.56L173.036 107.56L172.331 106.851ZM172.047 107.104L171.428 106.318L171.366 106.367L171.312 106.425L172.047 107.104ZM165.194 114.645L164.446 113.981L164.446 113.981L165.194 114.645ZM160.927 119.614L160.152 118.982L160.152 118.982L160.927 119.614ZM159.432 121.535L158.621 120.95L158.621 120.95L159.432 121.535ZM158.716 122.682L157.786 122.314L157.776 122.34L157.767 122.365L158.716 122.682ZM158.712 122.693L159.622 123.107L159.644 123.059L159.661 123.01L158.712 122.693ZM158.707 122.704L157.797 122.29L157.796 122.293L158.707 122.704ZM158.1 123.957L158.967 124.454L158.967 124.454L158.1 123.957ZM157.687 124.604L156.84 124.072L156.84 124.072L157.687 124.604ZM154.507 130.614L153.613 130.166L153.577 130.237L153.553 130.312L154.507 130.614ZM151 146.631L150.003 146.553L150.003 146.553L151 146.631ZM150.244 159.471L149.244 159.444L149.197 161.229L150.744 160.337L150.244 159.471ZM154.052 157.273L154.552 158.14L154.576 158.126L154.599 158.11L154.052 157.273ZM160.255 153.219L160.802 154.056L160.833 154.035L160.863 154.012L160.255 153.219ZM165.978 148.613L166.624 149.376L166.624 149.376L165.978 148.613ZM168.708 146.186L169.398 146.909L169.398 146.909L168.708 146.186ZM170.269 144.479L169.425 143.942L169.425 143.942L170.269 144.479ZM174.328 138.659L175.151 139.228L175.151 139.228L174.328 138.659ZM176.502 135.368L177.355 135.89L177.355 135.89L176.502 135.368ZM177.229 134.087L178.122 134.538L178.122 134.538L177.229 134.087ZM177.554 133.288L176.575 133.085L176.575 133.085L177.554 133.288ZM178.417 130.701L177.48 130.351L177.48 130.351L178.417 130.701ZM179.896 126.842L180.83 127.201L180.83 127.201L179.896 126.842ZM181.284 123.108L182.229 123.435L182.229 123.435L181.284 123.108ZM181.714 121.755L182.679 122.018L182.679 122.018L181.714 121.755ZM181.845 121.099L180.846 121.156L180.846 121.157L181.845 121.099ZM181.88 120.698L180.895 120.525L180.895 120.526L181.88 120.698ZM181.989 120.199L181.019 119.958L181.019 119.958L181.989 120.199ZM182.391 118.784L181.434 118.492L181.434 118.492L182.391 118.784ZM183.736 114.697L182.791 114.372L182.791 114.372L183.736 114.697ZM186.934 105.769L187.871 106.116L188.37 104.769H186.934V105.769ZM186.933 105.769L185.994 105.423L185.498 106.769H186.933V105.769ZM191.039 95.4355L190.12 95.0424L190.12 95.0424L191.039 95.4355ZM195.545 86.4492L196.353 87.0383L196.403 86.9698L196.441 86.8938L195.545 86.4492ZM198.851 80.3213L197.994 79.8058L197.994 79.8058L198.851 80.3213ZM204.074 73.4688L204.753 74.2032L204.754 74.2018L204.074 73.4688ZM204.604 72.8232L205.407 73.4186L205.407 73.4186L204.604 72.8232ZM205.493 71.6455L204.71 71.0234L204.71 71.0234L205.493 71.6455ZM208.94 68.1426L208.298 67.3758L208.298 67.3758L208.94 68.1426ZM227.573 58.4756L227.908 59.4177L227.913 59.4161L227.573 58.4756ZM261.917 60.2783L262.341 59.3727L262.341 59.3727L261.917 60.2783ZM278.044 70.0244L278.713 69.2814L278.713 69.2814L278.044 70.0244ZM284.038 77.2129L283.247 77.8247L283.252 77.8312L283.257 77.8376L284.038 77.2129ZM284.042 77.2178L284.839 76.6144L284.831 76.6036L284.823 76.5931L284.042 77.2178ZM288.805 84.626L289.679 84.1414L289.679 84.1414L288.805 84.626ZM292.831 94.4365L293.808 94.2249L293.808 94.2248L292.831 94.4365ZM294.492 107.153L295.49 107.094L295.49 107.094L294.492 107.153ZM294.587 112.384L295.586 112.426L295.586 112.426L294.587 112.384ZM294.419 114.191L295.405 114.357L295.405 114.357L294.419 114.191ZM294.023 115.374L293.212 114.79L293.21 114.792L294.023 115.374ZM293.761 116.154L292.788 115.924L292.788 115.924L293.761 116.154ZM293.437 117.84L292.451 117.668L292.451 117.668L293.437 117.84ZM292.421 123.015L293.393 123.247L293.393 123.247L292.421 123.015ZM286.188 136.445L286.966 137.073L286.966 137.073L286.188 136.445ZM278.158 146.181L278.875 146.878L278.875 146.878L278.158 146.181ZM268.265 153.351L268.748 154.226L268.748 154.226L268.265 153.351ZM244.564 160.441L244.58 161.441L244.58 161.441L244.564 160.441ZM229.592 159.627L229.693 158.632L229.691 158.632L229.592 159.627ZM229.582 159.626L229.472 160.62L229.483 160.621L229.582 159.626ZM229.573 159.625L229.434 160.615L229.449 160.617L229.463 160.619L229.573 159.625ZM216.431 157.688L216.276 158.677L216.276 158.677L216.431 157.688ZM210.527 156.715L210.35 157.699L210.35 157.699L210.527 156.715ZM208.553 156.331L208.34 157.308L208.34 157.308L208.553 156.331ZM207.9 156.176L207.639 157.141L207.639 157.141L207.9 156.176ZM207.539 156.056L207.911 155.127L207.837 155.098L207.759 155.08L207.539 156.056ZM197.582 153.893L197.782 152.913L197.782 152.913L197.582 153.893ZM191.145 152.682L191.305 151.695L191.305 151.695L191.145 152.682ZM188.733 152.347L188.835 151.352L188.835 151.352L188.733 152.347ZM187.383 152.3L187.236 151.311L187.197 151.317L187.158 151.325L187.383 152.3ZM187.37 152.303L187.453 153.299L187.525 153.293L187.595 153.277L187.37 152.303ZM187.358 152.304L187.275 151.307L187.267 151.308L187.259 151.309L187.358 152.304ZM185.97 152.404L185.973 153.404L185.973 153.404L185.97 152.404ZM185.202 152.37L185.24 151.371L185.24 151.371L185.202 152.37ZM178.408 152.621L178.35 151.623L178.27 151.627L178.193 151.645L178.408 152.621ZM162.784 157.593L162.353 156.69L162.353 156.69L162.784 157.593ZM152.459 162.733L151.993 161.849L150.333 162.723L151.984 163.614L152.459 162.733ZM163.784 168.408L163.353 169.311L163.353 169.311L163.784 168.408ZM179.408 173.379L179.193 174.355L179.27 174.373L179.35 174.377L179.408 173.379ZM186.203 173.63L186.241 174.629L186.241 174.629L186.203 173.63ZM186.97 173.597L186.973 172.597L186.973 172.597L186.97 173.597ZM188.358 173.696L188.523 172.71L188.49 172.705L188.458 172.701L188.358 173.696ZM188.37 173.698L188.206 174.685L188.218 174.687L188.37 173.698ZM188.383 173.7L188.231 174.689L188.236 174.689L188.383 173.7ZM189.733 173.653L189.835 174.648L189.835 174.648L189.733 173.653ZM192.145 173.319L192.305 174.306L192.305 174.306L192.145 173.319ZM198.582 172.108L198.782 173.088L198.782 173.088L198.582 172.108ZM208.539 169.944L208.759 170.92L208.837 170.902L208.911 170.873L208.539 169.944ZM208.9 169.825L209.162 170.79L209.162 170.79L208.9 169.825ZM209.553 169.669L209.34 168.692L209.34 168.692L209.553 169.669ZM211.527 169.286L211.35 168.302L211.35 168.302L211.527 169.286ZM217.432 168.312L217.277 167.324L217.277 167.324L217.432 168.312ZM230.573 166.376L230.712 167.366L230.751 167.361L230.79 167.352L230.573 166.376ZM230.582 166.374L230.483 165.379L230.423 165.385L230.365 165.398L230.582 166.374ZM230.592 166.373L230.691 167.368L230.693 167.368L230.592 166.373ZM245.564 165.559L245.58 164.559L245.58 164.559L245.564 165.559ZM269.265 172.65L269.748 171.775L269.748 171.775L269.265 172.65ZM279.158 179.82L279.875 179.123L279.875 179.123L279.158 179.82ZM287.188 189.555L287.966 188.927L287.966 188.927L287.188 189.555ZM293.421 202.985L294.393 202.753L294.393 202.753L293.421 202.985ZM294.437 208.16L293.451 208.332L293.451 208.332L294.437 208.16ZM294.761 209.847L293.788 210.077L293.788 210.077L294.761 209.847ZM295.024 210.627L294.212 211.21L294.212 211.211L295.024 210.627ZM295.42 211.809L296.406 211.643L296.406 211.643L295.42 211.809ZM295.587 213.617L296.586 213.575L296.586 213.574L295.587 213.617ZM295.492 218.847L296.49 218.906L296.49 218.906L295.492 218.847ZM293.831 231.563L294.808 231.775L294.808 231.775L293.831 231.563ZM289.806 241.375L290.68 241.86L290.68 241.86L289.806 241.375ZM285.042 248.782L285.823 249.407L285.831 249.396L285.839 249.386L285.042 248.782ZM285.038 248.787L284.257 248.162L284.252 248.169L284.247 248.175L285.038 248.787ZM279.044 255.976L279.713 256.719L279.713 256.719L279.044 255.976ZM262.917 265.722L263.341 266.627L263.341 266.627L262.917 265.722ZM228.573 267.525L228.913 266.585L228.908 266.583L228.573 267.525ZM209.941 257.858L209.299 258.625L209.299 258.625L209.941 257.858ZM206.493 254.355L205.71 254.978L205.71 254.978L206.493 254.355ZM205.604 253.178L206.407 252.582L206.407 252.582L205.604 253.178ZM205.074 252.531L205.754 251.798L205.753 251.797L205.074 252.531ZM199.851 245.679L198.994 246.194L198.994 246.194L199.851 245.679ZM196.545 239.551L197.441 239.106L197.403 239.03L197.353 238.962L196.545 239.551ZM192.039 230.564L191.12 230.958L191.12 230.958L192.039 230.564ZM187.933 220.231L188.64 219.524L186.994 220.577L187.933 220.231ZM187.934 220.232L187.226 220.94L188.871 219.885L187.934 220.232ZM184.736 211.303L183.791 211.628L183.791 211.628L184.736 211.303ZM183.391 207.216L182.434 207.508L182.434 207.508L183.391 207.216ZM182.989 205.802L182.019 206.043L182.019 206.043L182.989 205.802ZM182.881 205.303L181.896 205.475L181.896 205.476L182.881 205.303ZM182.845 204.901L183.843 204.959L183.843 204.958L182.845 204.901ZM182.714 204.245L183.679 203.982L183.679 203.982L182.714 204.245ZM182.284 202.893L183.229 202.566L183.229 202.566L182.284 202.893ZM180.896 199.159L181.83 198.8L181.83 198.8L180.896 199.159ZM179.417 195.3L178.48 195.65L178.48 195.65L179.417 195.3ZM178.554 192.712L179.533 192.509L179.533 192.509L178.554 192.712ZM178.23 191.914L179.123 191.463L179.123 191.463L178.23 191.914ZM177.502 190.632L178.355 190.11L178.355 190.11L177.502 190.632ZM175.328 187.342L176.151 186.773L176.151 186.773L175.328 187.342ZM171.269 181.521L172.112 180.985L172.112 180.984L171.269 181.521ZM169.708 179.815L170.398 179.092L170.398 179.092L169.708 179.815ZM166.978 177.388L167.624 176.625L167.624 176.625L166.978 177.388ZM161.255 172.782L161.863 171.989L161.833 171.966L161.802 171.945L161.255 172.782ZM155.052 168.728L155.599 167.89L155.576 167.875L155.552 167.862L155.052 168.728ZM150.258 165.959L150.758 165.093L149.202 164.194L149.258 165.991L150.258 165.959ZM151 178.369L150.003 178.447L150.003 178.447L151 178.369ZM154.507 194.386L153.553 194.688L153.577 194.763L153.613 194.834L154.507 194.386ZM157.687 200.396L156.84 200.928L156.84 200.928L157.687 200.396ZM158.1 201.043L158.967 200.546L158.967 200.546L158.1 201.043ZM158.707 202.296L157.796 202.707L157.797 202.71L158.707 202.296ZM158.712 202.307L159.661 201.99L159.644 201.941L159.622 201.893L158.712 202.307ZM158.716 202.318L157.767 202.635L157.776 202.66L157.785 202.685L158.716 202.318ZM159.432 203.465L158.621 204.05L158.621 204.05L159.432 203.465ZM160.927 205.386L160.152 206.018L160.152 206.018L160.927 205.386ZM165.194 210.355L164.446 211.019L164.446 211.019L165.194 210.355ZM172.047 217.896L171.312 218.575L171.366 218.633L171.429 218.682L172.047 217.896ZM172.331 218.149L173.036 217.44L173.036 217.44L172.331 218.149ZM172.792 218.637L173.532 217.964L173.532 217.964L172.792 218.637ZM174.111 220.155L174.875 219.51L174.875 219.51L174.111 220.155ZM177.906 224.781L177.128 225.409L177.128 225.409L177.906 224.781ZM186.154 235.194L185.366 235.81L185.38 235.828L185.395 235.845L186.154 235.194ZM186.16 235.201L186.96 234.601L186.941 234.575L186.919 234.55L186.16 235.201ZM186.166 235.209L186.977 234.624L186.972 234.616L186.966 234.609L186.166 235.209ZM194.357 247.769L195.231 247.282L195.231 247.282L194.357 247.769ZM200.066 271.839L201.066 271.82L201.066 271.82L200.066 271.839ZM198.804 283.992L199.766 284.264L199.766 284.264L198.804 283.992ZM194.388 295.813L193.455 295.453L193.455 295.453L194.388 295.813ZM185.873 307.927L186.561 308.653L186.561 308.653L185.873 307.927ZM181.899 311.394L181.258 310.626L181.258 310.626L181.899 311.394ZM180.602 312.518L179.916 311.79L179.916 311.79L180.602 312.518ZM180.058 313.136L179.147 312.722L179.146 312.725L180.058 313.136ZM179.231 314.069L179.868 314.841L179.868 314.841L179.231 314.069ZM177.749 315.118L178.286 315.962L178.286 315.962L177.749 315.118ZM173.173 317.651L173.621 318.546L173.621 318.546L173.173 317.651ZM161.329 322.571L161.634 323.524L161.635 323.524L161.329 322.571ZM150.819 323.99L150.837 324.99L150.837 324.99L150.819 323.99ZM142.022 323.569L141.858 324.556L141.878 324.559L141.899 324.562L142.022 323.569ZM142.017 323.568L142.181 322.582L142.166 322.579L142.151 322.577L142.017 323.568ZM132.794 321.972L132.485 322.923L132.485 322.923L132.794 321.972ZM116.29 312.878L115.718 313.698L115.718 313.698L116.29 312.878ZM97.5566 284.037L98.541 283.861L98.5402 283.856L97.5566 284.037ZM96.6123 263.067L95.6273 262.895L95.6273 262.895L96.6123 263.067ZM97.9219 258.33L96.9916 257.963L96.9916 257.963L97.9219 258.33ZM98.4971 256.971L99.4144 257.369L99.4144 257.369L98.4971 256.971ZM98.792 256.189L99.767 256.412L99.7674 256.41L98.792 256.189ZM102.114 248.239L101.239 247.755L101.239 247.755L102.114 248.239ZM105.769 242.312L106.601 242.866L106.648 242.795L106.683 242.718L105.769 242.312ZM111.298 233.917L110.498 233.317L110.498 233.317L111.298 233.917ZM118.193 225.194H119.193V222.429L117.425 224.555L118.193 225.194ZM118.193 225.195H117.193V227.966L118.963 225.834L118.193 225.195ZM124.328 217.962L123.574 217.305L123.574 217.305L124.328 217.962ZM127.194 214.753L126.463 214.071L126.463 214.071L127.194 214.753ZM128.219 213.698L127.525 212.978L127.525 212.978L128.219 213.698ZM128.597 213.354L127.955 212.588L127.955 212.588L128.597 213.354ZM128.926 213.123L129.374 214.017L129.376 214.016L128.926 213.123ZM129.429 212.682L130.139 213.385L130.139 213.385L129.429 212.682ZM130.386 211.633L131.141 212.288L131.141 212.288L130.386 211.633ZM132.925 208.564L133.702 209.193L133.702 209.193L132.925 208.564ZM135.527 205.354L134.756 204.717L134.756 204.717L135.527 205.354ZM137.337 203.312L138.003 204.059L138.003 204.059L137.337 203.312ZM137.866 202.633L138.703 203.18L138.703 203.18L137.866 202.633ZM138.612 201.361L139.491 201.84L139.491 201.84L138.612 201.361ZM140.375 197.834L141.279 198.262L141.279 198.262L140.375 197.834ZM143.386 191.408L144.273 191.87L144.273 191.87L143.386 191.408ZM144.083 189.203L145.055 189.439L145.055 189.439L144.083 189.203ZM144.82 185.625L145.804 185.804L145.804 185.804L144.82 185.625ZM145.947 178.366L146.939 178.496L146.944 178.459L146.946 178.422L145.947 178.366ZM146.357 170.967L147.356 171.022L147.357 170.994V170.967H146.357ZM146.357 166.195H147.357V164.422L145.84 165.34L146.357 166.195ZM135.298 173.462L134.732 172.638L134.732 172.638L135.298 173.462ZM123.181 184.507L122.443 183.832L122.389 183.891L122.345 183.957L123.181 184.507ZM119.565 190.266L118.681 189.798L118.681 189.798L119.565 190.266ZM119.211 190.947L120.075 191.45L120.075 191.45L119.211 190.947ZM118.43 192.1L117.618 191.516L117.61 191.526L118.43 192.1ZM118.423 192.109L119.17 192.774L119.209 192.73L119.242 192.683L118.423 192.109ZM118.415 192.118L117.668 191.454L117.649 191.474L117.632 191.496L118.415 192.118ZM117.78 193.312L116.868 192.902L116.868 192.902L117.78 193.312ZM116.864 195.567L115.929 195.213L115.929 195.213L116.864 195.567ZM114.694 201.748L113.746 201.432L113.746 201.432L114.694 201.748ZM111.59 211.452L110.635 211.155L110.611 211.231L110.6 211.31L111.59 211.452ZM111.513 211.825L112.479 212.081L112.479 212.081L111.513 211.825ZM111.321 212.468L112.274 212.772L112.274 212.772L111.321 212.468ZM110.665 214.37L111.606 214.709L111.606 214.709L110.665 214.37ZM108.557 219.97L109.489 220.33L109.489 220.33L108.557 219.97ZM103.663 232.319L102.736 231.944L102.731 231.956L102.727 231.968L103.663 232.319ZM103.66 232.327L104.574 232.733L104.586 232.706L104.596 232.678L103.66 232.327ZM103.656 232.336L104.568 232.746L104.57 232.742L103.656 232.336ZM96.875 245.71L97.7333 246.223L97.7333 246.223L96.875 245.71ZM78.8838 262.689L79.4004 263.546L79.4004 263.546L78.8838 262.689ZM67.7275 267.673L67.9736 268.642L67.9737 268.642L67.7275 267.673ZM55.2812 269.759L55.4351 270.747L55.4351 270.747L55.2812 269.759ZM40.5342 268.441L40.2492 269.4L40.2492 269.4L40.5342 268.441ZM35.5449 266.733L35.8891 265.795L35.8891 265.795L35.5449 266.733ZM33.9229 266.172L34.2104 265.214L34.2103 265.214L33.9229 266.172ZM33.1152 266.01L33.0164 265.015L33.0151 265.015L33.1152 266.01ZM31.8936 265.761L31.5438 266.698L31.5439 266.698L31.8936 265.761ZM30.2441 265.002L29.7816 265.889L29.7816 265.889L30.2441 265.002ZM25.7617 262.305L25.2111 263.139L25.2112 263.139L25.7617 262.305ZM15.5791 254.508L14.9071 255.248L14.9071 255.248L15.5791 254.508ZM9.0957 246.116L8.23866 246.631L8.23867 246.631L9.0957 246.116ZM5.06152 238.287L4.11284 238.603L4.12513 238.64L4.14024 238.676L5.06152 238.287ZM5.05957 238.281L6.00825 237.965L5.99763 237.933L5.9849 237.902L5.05957 238.281ZM1.83105 229.496L0.852959 229.704L0.852962 229.704L1.83105 229.496ZM1.45508 210.656L0.458745 210.571L0.458744 210.571L1.45508 210.656ZM17.0645 180.013L17.7091 180.777L17.7128 180.774L17.0645 180.013ZM34.7529 168.71L34.4099 167.771L34.4099 167.771L34.7529 168.71ZM39.5107 167.476L39.3634 166.486L39.3634 166.487L39.5107 167.476ZM40.9756 167.294L41.0895 168.287L41.0895 168.287L40.9756 167.294ZM41.7988 167.158L42.0934 168.114L42.0955 168.113L41.7988 167.158ZM50.3457 166.061L50.3277 165.061L50.3277 165.061L50.3457 166.061ZM57.3057 166.262L57.2428 167.26L57.3274 167.265L57.4118 167.256L57.3057 166.262ZM67.3408 166.853L67.46 165.86L67.46 165.86L67.3408 166.853ZM78.3428 168.463L79.0499 169.17L80.415 167.805L78.5124 167.477L78.3428 168.463ZM78.3418 168.464L77.6347 167.757L76.2674 169.124L78.1734 169.45L78.3418 168.464ZM87.6738 170.159L87.8652 169.178L87.8652 169.178L87.6738 170.159ZM91.8857 171.037L92.1107 170.063L92.1106 170.063L91.8857 171.037ZM93.3115 171.397L93.5879 170.436L93.5878 170.436L93.3115 171.397ZM93.7979 171.553L94.1408 170.613L94.1407 170.613L93.7979 171.553ZM94.1631 171.722L93.6137 172.557L93.6139 172.557L94.1631 171.722ZM94.7969 171.937L94.5427 172.904L94.5428 172.904L94.7969 171.937ZM96.1836 172.241L95.9936 173.223L95.9937 173.223L96.1836 172.241ZM100.11 172.906L100.266 171.918L100.266 171.918L100.11 172.906ZM104.192 173.555L104.358 172.568L104.358 172.568L104.192 173.555ZM106.864 174.101L107.178 173.151L107.178 173.151L106.864 174.101ZM107.718 174.22L107.662 175.218L107.662 175.218L107.718 174.22ZM109.192 174.229L109.217 175.229L109.217 175.229L109.192 174.229ZM113.128 173.993L113.209 174.99L113.209 174.99L113.128 173.993ZM120.198 173.387L120.155 172.388L120.155 172.388L120.198 173.387ZM122.457 172.889L122.739 173.848L122.739 173.848L122.457 172.889ZM125.924 171.738L126.261 172.68L126.261 172.68L125.924 171.738ZM132.773 169.085L133.156 170.009L133.191 169.994L133.225 169.977L132.773 169.085ZM139.387 165.74L139.838 166.633L139.863 166.62L139.887 166.606L139.387 165.74ZM144.632 162.711L145.132 163.577L146.632 162.711L145.132 161.845L144.632 162.711ZM140.387 160.261L140.887 159.395L140.863 159.381L140.838 159.368L140.387 160.261ZM133.774 156.916L134.226 156.024L134.192 156.007L134.157 155.992L133.774 156.916ZM126.924 154.263L127.261 153.321L127.261 153.321L126.924 154.263ZM123.457 153.112L123.739 152.153L123.739 152.153L123.457 153.112ZM121.198 152.613L121.242 151.614L121.241 151.614L121.198 152.613ZM114.128 152.008L114.209 151.011L114.209 151.011L114.128 152.008ZM110.192 151.771L110.217 150.771L110.217 150.771L110.192 151.771ZM108.718 151.781L108.662 150.783L108.662 150.783L108.718 151.781ZM107.864 151.899L108.178 152.849L108.178 152.849L107.864 151.899ZM105.192 152.446L105.358 153.433L105.358 153.433L105.192 152.446ZM101.11 153.095L100.955 152.107L100.955 152.107L101.11 153.095ZM97.1836 153.76L96.9937 152.778L96.9936 152.778L97.1836 153.76ZM95.7969 154.063L95.5427 153.096L95.5427 153.096L95.7969 154.063ZM95.1631 154.278L94.6144 153.442L94.6134 153.443L95.1631 154.278ZM94.7979 154.448L95.1407 155.388L95.1408 155.388L94.7979 154.448ZM94.3115 154.604L94.5878 155.565L94.5878 155.565L94.3115 154.604ZM92.8857 154.963L93.1106 155.937L93.1107 155.937L92.8857 154.963ZM88.6738 155.841L88.8652 156.822L88.8652 156.822L88.6738 155.841ZM79.3418 157.537L79.1734 156.551L79.3418 158.537V157.537ZM79.3428 157.537L79.5124 158.523L79.3428 156.537V157.537ZM68.3408 159.147L68.46 160.14L68.46 160.14L68.3408 159.147ZM58.3057 159.738L58.4118 158.744L58.3274 158.735L58.2428 158.74L58.3057 159.738ZM51.3457 159.939L51.3277 160.939L51.3277 160.939L51.3457 159.939ZM42.7998 158.842L43.0964 157.887L43.0948 157.886L42.7998 158.842ZM41.9756 158.707L42.0895 157.714L42.0895 157.714L41.9756 158.707ZM40.5107 158.525L40.3634 159.514L40.3634 159.514L40.5107 158.525ZM35.7529 157.291L35.4099 158.23L35.4099 158.23L35.7529 157.291ZM18.0654 145.988L18.7137 145.227L18.71 145.224L18.0654 145.988ZM2.45508 115.344L1.45874 115.429L1.45874 115.429L2.45508 115.344ZM2.83105 96.5039L1.85296 96.2957L1.85296 96.2957L2.83105 96.5039ZM6.05957 87.7188L5.16514 87.2715L5.14842 87.305L5.13424 87.3396L6.05957 87.7188ZM6.0625 87.7129L6.95693 88.1601L6.97129 88.1314L6.98378 88.1018L6.0625 87.7129ZM10.0957 79.8848L9.23867 79.3695L9.23866 79.3695L10.0957 79.8848ZM16.5801 71.4922L15.9081 70.7516L15.9081 70.7516L16.5801 71.4922ZM26.7627 63.6953L26.2121 62.8605L26.2121 62.8605L26.7627 63.6953ZM31.2441 60.999L30.7816 60.1124L30.7816 60.1124L31.2441 60.999ZM32.8936 60.2393L32.5439 59.3024L32.5439 59.3024L32.8936 60.2393ZM34.1152 59.9912L34.0149 60.9862L34.0169 60.9864L34.1152 59.9912ZM34.9229 59.8291L35.2104 60.7869L35.2104 60.7869L34.9229 59.8291ZM36.5449 59.2666L36.8891 60.2055L36.8891 60.2055L36.5449 59.2666ZM41.5342 57.5586L41.2492 56.6L41.2492 56.6001L41.5342 57.5586ZM56.2822 56.2412L56.4361 55.2531L56.4361 55.2531L56.2822 56.2412ZM68.7275 58.3281L68.9737 57.3589L68.9737 57.3589L68.7275 58.3281ZM79.8838 63.3115L80.4004 62.4553L80.4004 62.4553L79.8838 63.3115ZM97.875 80.29L98.7333 79.7768L98.7333 79.7768L97.875 80.29ZM104.656 93.6641L105.57 93.2579L105.568 93.2541L104.656 93.6641ZM104.66 93.6729L105.609 93.3566L105.594 93.3108L105.574 93.2667L104.66 93.6729ZM104.663 93.6816L103.714 93.9979L103.724 94.0276L103.736 94.0566L104.663 93.6816ZM109.557 106.031L110.489 105.671L110.489 105.671L109.557 106.031ZM111.666 111.631L112.607 111.292L112.607 111.292L111.666 111.631ZM112.321 113.532L113.274 113.228L113.274 113.228L112.321 113.532ZM112.513 114.176L113.479 113.92L113.479 113.92L112.513 114.176ZM112.59 114.548L111.6 114.69L111.611 114.769L111.635 114.845L112.59 114.548ZM115.694 124.253L114.746 124.569L114.746 124.569L115.694 124.253ZM117.864 130.434L116.929 130.788L116.929 130.788L117.864 130.434ZM118.78 132.688L117.868 133.098L117.868 133.098L118.78 132.688ZM119.415 133.882L118.632 134.504L118.634 134.507L119.415 133.882ZM119.423 133.892L118.642 134.516L118.658 134.537L118.675 134.556L119.423 133.892ZM119.431 133.9L120.243 133.317L120.212 133.275L120.178 133.236L119.431 133.9ZM120.212 135.054L121.076 134.551L121.076 134.551L120.212 135.054ZM120.565 135.734L119.681 136.201L119.681 136.202L120.565 135.734ZM124.181 141.493L123.345 142.043L123.389 142.109L123.443 142.168L124.181 141.493ZM136.298 152.539L135.732 153.363L135.732 153.363L136.298 152.539ZM146.357 159.188L145.827 160.036L147.357 160.993V159.188H146.357ZM146.357 154.033H147.357V154.006L147.356 153.978L146.357 154.033ZM145.947 146.634L146.946 146.578L146.944 146.541L146.939 146.504L145.947 146.634ZM144.82 139.375L145.804 139.196L145.804 139.196L144.82 139.375ZM144.083 135.797L145.055 135.561L145.055 135.561L144.083 135.797ZM143.386 133.592L142.499 134.054L142.499 134.054L143.386 133.592ZM140.375 127.166L141.279 126.738L141.279 126.738L140.375 127.166ZM138.612 123.639L139.491 123.16L139.491 123.16L138.612 123.639ZM137.866 122.367L138.703 121.82L138.703 121.82L137.866 122.367ZM137.337 121.688L136.671 122.434L136.671 122.434L137.337 121.688ZM135.527 119.646L134.756 120.283L134.756 120.283L135.527 119.646ZM132.925 116.436L133.702 115.807L133.702 115.807L132.925 116.436ZM130.386 113.367L131.141 112.712L131.141 112.712L130.386 113.367ZM129.429 112.318L130.139 111.615L130.139 111.615L129.429 112.318ZM128.926 111.877L128.477 112.771L128.477 112.771L128.926 111.877ZM128.597 111.646L127.955 112.412L127.955 112.412L128.597 111.646ZM128.219 111.302L127.525 112.022L127.525 112.022L128.219 111.302ZM127.194 110.247L126.463 110.929L126.463 110.929L127.194 110.247ZM124.328 107.038L123.574 107.695L123.574 107.695L124.328 107.038ZM118.193 99.8047L118.963 99.166L117.193 97.0342V99.8047H118.193ZM118.193 99.8057L117.425 100.445L119.193 102.571V99.8057H118.193ZM111.298 91.083L110.498 91.6827L110.498 91.6827L111.298 91.083ZM105.769 82.6875L106.683 82.2823L106.648 82.2047L106.601 82.134L105.769 82.6875ZM102.114 76.7607L101.239 77.245L101.239 77.2451L102.114 76.7607ZM98.792 68.8105L99.7674 68.59L99.7669 68.5878L98.792 68.8105ZM98.4971 68.0293L99.4144 67.6312L99.4144 67.6312L98.4971 68.0293ZM97.9219 66.6699L96.9916 67.0368L96.9916 67.0369L97.9219 66.6699ZM96.6123 61.9326L95.6273 62.1052L95.6273 62.1052L96.6123 61.9326ZM97.5566 40.9629L98.5402 41.1436L98.541 41.1389L97.5566 40.9629ZM116.29 12.1221L115.718 11.302L115.718 11.302L116.29 12.1221ZM132.794 3.02832L132.485 2.07718L132.485 2.07718L132.794 3.02832ZM142.017 1.43164L142.151 2.42258L142.166 2.42054L142.181 2.41803L142.017 1.43164ZM142.022 1.43066L141.899 0.438363L141.878 0.440901L141.858 0.44427L142.022 1.43066ZM150.819 1.00977L150.802 2.00961C154.321 2.07194 158.075 2.43531 161.024 3.38094L161.329 2.42871L161.634 1.47648C158.41 0.442415 154.428 0.0735201 150.837 0.00992244L150.819 1.00977ZM161.329 2.42871L161.024 3.38094C164.766 4.58113 169.169 6.46241 172.725 8.24283L173.173 7.34863L173.621 6.45443C169.996 4.63986 165.497 2.71513 161.634 1.47648L161.329 2.42871ZM173.173 7.34863L172.725 8.24283C174.503 9.13291 176.06 9.99327 177.213 10.7257L177.749 9.88184L178.286 9.03794C177.056 8.25601 175.433 7.36187 173.621 6.45444L173.173 7.34863ZM177.749 9.88184L177.213 10.7257C177.789 11.0921 178.255 11.4218 178.595 11.702L179.231 10.9307L179.868 10.1594C179.441 9.80669 178.898 9.42761 178.286 9.03795L177.749 9.88184ZM179.231 10.9307L178.595 11.7019C178.952 11.9966 179.107 12.1899 179.146 12.2753L180.058 11.8643L180.969 11.4532C180.724 10.9088 180.236 10.4635 179.868 10.1594L179.231 10.9307ZM180.058 11.8643L179.146 12.2761C179.229 12.459 179.356 12.6205 179.458 12.7397C179.576 12.8763 179.727 13.0325 179.916 13.2103L180.602 12.4824L181.287 11.7546C181.132 11.6081 181.033 11.5038 180.976 11.4367C180.947 11.4033 180.934 11.3852 180.93 11.3807C180.924 11.372 180.944 11.3984 180.969 11.4524L180.058 11.8643ZM180.602 12.4824L179.916 13.2103C180.267 13.5415 180.729 13.9316 181.258 14.374L181.899 13.6064L182.54 12.8389C182.004 12.3908 181.588 12.0381 181.287 11.7545L180.602 12.4824ZM181.899 13.6064L181.258 14.374C182.325 15.2648 183.704 16.3966 185.185 17.7993L185.873 17.0732L186.561 16.3472C185.025 14.8929 183.593 13.7184 182.54 12.8389L181.899 13.6064ZM185.873 17.0732L185.185 17.7993C188.148 20.605 191.491 24.4706 193.455 29.5474L194.388 29.1865L195.32 28.8257C193.206 23.3615 189.632 19.2558 186.561 16.3472L185.873 17.0732ZM194.388 29.1865L193.455 29.5473C195.469 34.7528 196.913 37.9891 197.841 41.2793L198.804 41.0078L199.766 40.7363C198.804 37.3253 197.285 33.9034 195.32 28.8257L194.388 29.1865ZM198.804 41.0078L197.841 41.2793C198.761 44.5399 199.169 47.8483 199.067 53.1419L200.066 53.1611L201.066 53.1804C201.171 47.7498 200.753 44.2358 199.766 40.7363L198.804 41.0078ZM200.066 53.1611L199.067 53.1419C198.863 63.7251 196.365 71.5723 193.484 76.7448L194.357 77.2314L195.231 77.7181C198.288 72.2307 200.857 64.0566 201.066 53.1804L200.066 53.1611ZM194.357 77.2314L193.484 76.7448C191.158 80.9187 187.098 86.7891 185.355 89.2061L186.166 89.791L186.977 90.3759C188.728 87.9475 192.846 81.999 195.231 77.7181L194.357 77.2314ZM186.166 89.791L185.366 89.191L185.36 89.1988L186.16 89.7988L186.96 90.3988L186.966 90.391L186.166 89.791ZM186.16 89.7988L185.401 89.148L185.395 89.1549L186.154 89.8057L186.914 90.4565L186.919 90.4496L186.16 89.7988ZM186.154 89.8057L185.366 89.1903C183.237 91.9175 179.98 96.0521 177.128 99.5912L177.906 100.219L178.685 100.846C181.546 97.2964 184.81 93.153 186.943 90.421L186.154 89.8057ZM177.906 100.219L177.128 99.5912C175.701 101.361 174.377 102.98 173.347 104.199L174.111 104.845L174.875 105.49C175.92 104.254 177.255 102.62 178.685 100.846L177.906 100.219ZM174.111 104.845L173.347 104.199C172.832 104.809 172.393 105.316 172.052 105.69L172.792 106.363L173.532 107.036C173.896 106.636 174.354 106.107 174.875 105.49L174.111 104.845ZM172.792 106.363L172.052 105.69C171.881 105.878 171.739 106.029 171.626 106.142L172.331 106.851L173.036 107.56C173.183 107.414 173.351 107.235 173.532 107.036L172.792 106.363ZM172.331 106.851L171.626 106.141C171.556 106.211 171.485 106.273 171.428 106.318L172.047 107.104L172.665 107.889C172.785 107.795 172.914 107.682 173.036 107.56L172.331 106.851ZM172.047 107.104L171.312 106.425C170.632 107.161 167.514 110.521 164.446 113.981L165.194 114.645L165.943 115.308C168.995 111.865 172.098 108.522 172.782 107.782L172.047 107.104ZM165.194 114.645L164.446 113.981C162.899 115.727 161.36 117.502 160.152 118.982L160.927 119.614L161.702 120.247C162.884 118.798 164.401 117.046 165.943 115.308L165.194 114.645ZM160.927 119.614L160.152 118.982C159.549 119.721 159.024 120.392 158.621 120.95L159.432 121.535L160.242 122.121C160.612 121.608 161.11 120.972 161.702 120.247L160.927 119.614ZM159.432 121.535L158.621 120.95C158.229 121.493 157.921 121.972 157.786 122.314L158.716 122.682L159.646 123.049C159.646 123.049 159.646 123.048 159.647 123.047C159.647 123.046 159.648 123.045 159.649 123.043C159.65 123.038 159.653 123.033 159.657 123.025C159.664 123.01 159.674 122.99 159.688 122.964C159.716 122.912 159.754 122.846 159.806 122.763C159.909 122.597 160.053 122.383 160.242 122.12L159.432 121.535ZM158.716 122.682L157.767 122.365L157.763 122.377L158.712 122.693L159.661 123.01L159.665 122.998L158.716 122.682ZM158.712 122.693L157.802 122.28L157.797 122.29L158.707 122.704L159.617 123.118L159.622 123.107L158.712 122.693ZM158.707 122.704L157.796 122.293C157.488 122.974 157.342 123.267 157.232 123.46L158.1 123.957L158.967 124.454C159.13 124.169 159.311 123.797 159.618 123.116L158.707 122.704ZM158.1 123.957L157.232 123.46C157.113 123.668 157.049 123.739 156.84 124.072L157.687 124.604L158.533 125.137C158.639 124.968 158.835 124.685 158.967 124.454L158.1 123.957ZM157.687 124.604L156.84 124.072C156.455 124.685 155.703 125.999 153.613 130.166L154.507 130.614L155.401 131.063C157.491 126.895 158.205 125.659 158.533 125.137L157.687 124.604ZM154.507 130.614L153.553 130.312C152.632 133.224 150.724 137.358 150.003 146.553L151 146.631L151.997 146.709C152.696 137.795 154.511 133.914 155.46 130.916L154.507 130.614ZM151 146.631L150.003 146.553C149.497 153.004 149.297 157.463 149.244 159.444L150.244 159.471L151.244 159.497C151.295 157.557 151.493 153.134 151.997 146.709L151 146.631ZM150.244 159.471L150.744 160.337L154.552 158.14L154.052 157.273L153.552 156.407L149.744 158.605L150.244 159.471ZM154.052 157.273L154.599 158.11L160.802 154.056L160.255 153.219L159.708 152.382L153.505 156.436L154.052 157.273ZM160.255 153.219L160.863 154.012C162.331 152.887 164.591 151.1 166.624 149.376L165.978 148.613L165.331 147.85C163.329 149.548 161.096 151.314 159.646 152.425L160.255 153.219ZM165.978 148.613L166.624 149.376C167.645 148.511 168.614 147.657 169.398 146.909L168.708 146.186L168.018 145.462C167.273 146.172 166.337 146.997 165.331 147.851L165.978 148.613ZM168.708 146.186L169.398 146.909C170.17 146.173 170.801 145.504 171.112 145.015L170.269 144.479L169.425 143.942C169.261 144.199 168.8 144.716 168.018 145.462L168.708 146.186ZM170.269 144.479L171.112 145.015C171.792 143.947 173.515 141.594 175.151 139.228L174.328 138.659L173.506 138.09C171.936 140.361 170.128 142.837 169.425 143.942L170.269 144.479ZM174.328 138.659L175.151 139.228C175.962 138.055 176.748 136.883 177.355 135.89L176.502 135.368L175.649 134.847C175.071 135.791 174.311 136.926 173.506 138.09L174.328 138.659ZM176.502 135.368L177.355 135.89C177.658 135.393 177.922 134.935 178.122 134.538L177.229 134.087L176.337 133.636C176.17 133.966 175.938 134.374 175.649 134.847L176.502 135.368ZM177.229 134.087L178.122 134.538C178.318 134.149 178.472 133.786 178.533 133.491L177.554 133.288L176.575 133.085C176.575 133.083 176.564 133.129 176.522 133.235C176.482 133.335 176.422 133.468 176.337 133.636L177.229 134.087ZM177.554 133.288L178.533 133.492C178.618 133.083 178.922 132.205 179.354 131.051L178.417 130.701L177.48 130.351C177.068 131.453 176.698 132.492 176.575 133.085L177.554 133.288ZM178.417 130.701L179.354 131.051C179.779 129.913 180.31 128.552 180.83 127.201L179.896 126.842L178.963 126.483C178.449 127.82 177.91 129.2 177.48 130.351L178.417 130.701ZM179.896 126.842L180.83 127.201C181.348 125.854 181.856 124.516 182.229 123.435L181.284 123.108L180.339 122.782C179.978 123.826 179.482 125.134 178.963 126.483L179.896 126.842ZM181.284 123.108L182.229 123.435C182.416 122.894 182.571 122.41 182.679 122.018L181.714 121.755L180.749 121.491C180.659 121.822 180.52 122.259 180.339 122.782L181.284 123.108ZM181.714 121.755L182.679 122.018C182.737 121.805 182.777 121.629 182.804 121.487C182.824 121.379 182.853 121.205 182.843 121.04L181.845 121.099L180.846 121.157C180.844 121.116 180.845 121.087 180.846 121.078C180.846 121.066 180.847 121.06 180.847 121.062C180.846 121.067 180.844 121.086 180.837 121.123C180.823 121.197 180.797 121.317 180.749 121.491L181.714 121.755ZM181.845 121.099L182.843 121.041C182.843 121.048 182.842 121.037 182.846 121C182.849 120.966 182.856 120.924 182.865 120.871L181.88 120.698L180.895 120.526C180.87 120.668 180.832 120.909 180.846 121.156L181.845 121.099ZM181.88 120.698L182.865 120.871C182.884 120.761 182.916 120.618 182.96 120.44L181.989 120.199L181.019 119.958C180.969 120.157 180.925 120.351 180.895 120.525L181.88 120.698ZM181.989 120.199L182.96 120.44C183.047 120.088 183.179 119.625 183.347 119.077L182.391 118.784L181.434 118.492C181.262 119.055 181.119 119.556 181.019 119.958L181.989 120.199ZM182.391 118.784L183.347 119.077C183.682 117.98 184.154 116.559 184.682 115.022L183.736 114.697L182.791 114.372C182.26 115.917 181.779 117.363 181.434 118.492L182.391 118.784ZM183.736 114.697L184.682 115.022C185.738 111.95 187.017 108.425 187.871 106.116L186.934 105.769L185.996 105.422C185.138 107.739 183.854 111.28 182.791 114.372L183.736 114.697ZM186.934 105.769V104.769H186.933V105.769V106.769H186.934V105.769ZM186.933 105.769L187.871 106.114C188.803 103.586 190.35 99.5909 191.959 95.8287L191.039 95.4355L190.12 95.0424C188.495 98.8423 186.935 102.87 185.994 105.423L186.933 105.769ZM191.039 95.4355L191.959 95.8287C193.564 92.0741 195.206 88.611 196.353 87.0383L195.545 86.4492L194.737 85.8601C193.432 87.6493 191.706 91.3329 190.12 95.0424L191.039 95.4355ZM195.545 86.4492L196.441 86.8938C197.103 85.5599 198.258 83.2468 199.707 80.8368L198.851 80.3213L197.994 79.8058C196.499 82.2902 195.314 84.6653 194.649 86.0047L195.545 86.4492ZM198.851 80.3213L199.707 80.8368C201.176 78.3967 202.926 75.8914 204.753 74.2032L204.074 73.4688L203.396 72.7343C201.357 74.6186 199.489 77.32 197.994 79.8058L198.851 80.3213ZM204.074 73.4688L204.754 74.2018C204.963 74.0081 205.177 73.7292 205.407 73.4186L204.604 72.8232L203.8 72.2279C203.549 72.5666 203.443 72.69 203.394 72.7357L204.074 73.4688ZM204.604 72.8232L205.407 73.4186C205.646 73.0962 205.921 72.7148 206.276 72.2676L205.493 71.6455L204.71 71.0234C204.328 71.505 204.023 71.9268 203.8 72.2279L204.604 72.8232ZM205.493 71.6455L206.276 72.2676C206.983 71.3781 208.002 70.2326 209.582 68.9093L208.94 68.1426L208.298 67.3758C206.6 68.798 205.488 70.0444 204.71 71.0234L205.493 71.6455ZM208.94 68.1426L209.582 68.9093C212.747 66.2601 218.184 62.8777 227.908 59.4177L227.573 58.4756L227.238 57.5335C217.353 61.0509 211.689 64.5368 208.298 67.3758L208.94 68.1426ZM227.573 58.4756L227.913 59.4161C233.507 57.3951 248.095 54.9099 261.493 61.1839L261.917 60.2783L262.341 59.3727C248.316 52.8052 233.149 55.3978 227.233 57.5351L227.573 58.4756ZM261.917 60.2783L261.493 61.1839C269.943 65.1409 274.499 68.177 277.375 70.7674L278.044 70.0244L278.713 69.2814C275.633 66.5069 270.882 63.3721 262.341 59.3727L261.917 60.2783ZM278.044 70.0244L277.375 70.7674C280.256 73.3635 281.451 75.5021 283.247 77.8247L284.038 77.2129L284.829 76.6011C283.186 74.477 281.773 72.0379 278.713 69.2814L278.044 70.0244ZM284.038 77.2129L283.257 77.8376L283.261 77.8425L284.042 77.2178L284.823 76.5931L284.819 76.5882L284.038 77.2129ZM284.042 77.2178L283.245 77.8212C284.401 79.3497 286.228 82.0376 287.93 85.1106L288.805 84.626L289.679 84.1414C287.929 80.9823 286.051 78.2153 284.839 76.6144L284.042 77.2178ZM288.805 84.626L287.93 85.1106C289.636 88.1896 291.198 91.6218 291.854 94.6482L292.831 94.4365L293.808 94.2248C293.092 90.9154 291.42 87.2826 289.679 84.1414L288.805 84.626ZM292.831 94.4365L291.854 94.6482C292.685 98.489 293.258 103.243 293.494 107.213L294.492 107.153L295.49 107.094C295.25 103.048 294.667 98.1888 293.808 94.2249L292.831 94.4365ZM294.492 107.153L293.494 107.213C293.612 109.198 293.646 110.977 293.588 112.341L294.587 112.384L295.586 112.426C295.648 110.97 295.611 109.117 295.49 107.094L294.492 107.153ZM294.587 112.384L293.588 112.341C293.559 113.022 293.506 113.591 293.433 114.026L294.419 114.191L295.405 114.357C295.497 113.811 295.555 113.153 295.586 112.426L294.587 112.384ZM294.419 114.191L293.433 114.026C293.356 114.483 293.266 114.714 293.212 114.79L294.023 115.374L294.835 115.958C295.184 115.473 295.326 114.828 295.405 114.357L294.419 114.191ZM294.023 115.374L293.21 114.792C293.093 114.955 293.017 115.146 292.966 115.294C292.906 115.464 292.847 115.673 292.788 115.924L293.761 116.154L294.734 116.384C294.783 116.176 294.824 116.038 294.853 115.954C294.868 115.913 294.877 115.892 294.879 115.887C294.884 115.877 294.871 115.908 294.836 115.956L294.023 115.374ZM293.761 116.154L292.788 115.924C292.676 116.395 292.57 116.989 292.451 117.668L293.437 117.84L294.422 118.011C294.542 117.322 294.639 116.787 294.734 116.384L293.761 116.154ZM293.437 117.84L292.451 117.668C292.213 119.038 291.923 120.798 291.448 122.782L292.421 123.015L293.393 123.247C293.885 121.19 294.187 119.363 294.422 118.011L293.437 117.84ZM292.421 123.015L291.448 122.782C290.5 126.751 288.823 131.579 285.409 135.818L286.188 136.445L286.966 137.073C290.642 132.51 292.41 127.361 293.393 123.247L292.421 123.015ZM286.188 136.445L285.409 135.818C281.907 140.165 279.827 143.034 277.442 145.483L278.158 146.181L278.875 146.878C281.348 144.34 283.551 141.313 286.966 137.073L286.188 136.445ZM278.158 146.181L277.442 145.483C275.078 147.91 272.417 149.916 267.781 152.475L268.265 153.351L268.748 154.226C273.503 151.601 276.337 149.483 278.875 146.878L278.158 146.181ZM268.265 153.351L267.781 152.475C258.514 157.59 250.469 159.351 244.549 159.442L244.564 160.441L244.58 161.441C250.861 161.345 259.224 159.483 268.748 154.226L268.265 153.351ZM244.564 160.441L244.549 159.442C239.772 159.515 232.657 158.933 229.693 158.632L229.592 159.627L229.491 160.622C232.469 160.924 239.68 161.516 244.58 161.441L244.564 160.441ZM229.592 159.627L229.691 158.632L229.682 158.631L229.582 159.626L229.483 160.621L229.492 160.622L229.592 159.627ZM229.582 159.626L229.692 158.632L229.684 158.631L229.573 159.625L229.463 160.619L229.472 160.62L229.582 159.626ZM229.573 159.625L229.712 158.635C226.286 158.155 221.076 157.401 216.585 156.7L216.431 157.688L216.276 158.677C220.781 159.38 226.002 160.134 229.434 160.615L229.573 159.625ZM216.431 157.688L216.585 156.7C214.339 156.35 212.275 156.013 210.704 155.731L210.527 156.715L210.35 157.699C211.944 157.986 214.026 158.325 216.276 158.677L216.431 157.688ZM210.527 156.715L210.704 155.731C209.919 155.589 209.26 155.462 208.766 155.354L208.553 156.331L208.34 157.308C208.869 157.423 209.555 157.556 210.35 157.699L210.527 156.715ZM208.553 156.331L208.766 155.354C208.517 155.3 208.315 155.252 208.162 155.211L207.9 156.176L207.639 157.141C207.839 157.195 208.078 157.251 208.34 157.308L208.553 156.331ZM207.9 156.176L208.162 155.211C208.068 155.185 207.979 155.155 207.911 155.127L207.539 156.056L207.168 156.984C207.308 157.04 207.47 157.095 207.639 157.141L207.9 156.176ZM207.539 156.056L207.759 155.08C206.781 154.859 202.313 153.839 197.782 152.913L197.582 153.893L197.382 154.872C201.889 155.794 206.336 156.809 207.319 157.031L207.539 156.056ZM197.582 153.893L197.782 152.913C195.497 152.445 193.19 152 191.305 151.695L191.145 152.682L190.984 153.669C192.83 153.968 195.106 154.407 197.382 154.872L197.582 153.893ZM191.145 152.682L191.305 151.695C190.363 151.542 189.52 151.422 188.835 151.352L188.733 152.347L188.632 153.342C189.26 153.406 190.06 153.519 190.984 153.669L191.145 152.682ZM188.733 152.347L188.835 151.352C188.169 151.284 187.6 151.257 187.236 151.311L187.383 152.3L187.53 153.289C187.53 153.289 187.532 153.289 187.537 153.288C187.541 153.288 187.547 153.287 187.556 153.286C187.572 153.285 187.595 153.284 187.624 153.283C187.683 153.281 187.76 153.281 187.857 153.284C188.053 153.291 188.31 153.309 188.632 153.342L188.733 152.347ZM187.383 152.3L187.158 151.325L187.145 151.328L187.37 152.303L187.595 153.277L187.608 153.274L187.383 152.3ZM187.37 152.303L187.287 151.306L187.275 151.307L187.358 152.304L187.441 153.3L187.453 153.299L187.37 152.303ZM187.358 152.304L187.259 151.309C186.514 151.383 186.188 151.404 185.966 151.404L185.97 152.404L185.973 153.404C186.301 153.403 186.714 153.373 187.458 153.299L187.358 152.304ZM185.97 152.404L185.966 151.404C185.726 151.405 185.634 151.386 185.24 151.371L185.202 152.37L185.165 153.369C185.362 153.377 185.707 153.405 185.973 153.404L185.97 152.404ZM185.202 152.37L185.24 151.371C184.516 151.344 183.002 151.35 178.35 151.623L178.408 152.621L178.467 153.619C183.12 153.346 184.548 153.346 185.165 153.369L185.202 152.37ZM178.408 152.621L178.193 151.645C175.211 152.302 170.677 152.717 162.353 156.69L162.784 157.593L163.215 158.495C171.284 154.644 175.553 154.275 178.624 153.598L178.408 152.621ZM162.784 157.593L162.353 156.69C157.584 158.967 154.069 160.755 151.993 161.849L152.459 162.733L152.925 163.618C154.976 162.538 158.467 160.761 163.215 158.495L162.784 157.593ZM152.459 162.733L151.984 163.614C153.807 164.596 157.698 166.611 163.353 169.311L163.784 168.408L164.215 167.506C158.584 164.818 154.723 162.818 152.934 161.853L152.459 162.733ZM163.784 168.408L163.353 169.311C171.677 173.284 176.211 173.698 179.193 174.355L179.408 173.379L179.624 172.402C176.553 171.725 172.284 171.357 164.215 167.506L163.784 168.408ZM179.408 173.379L179.35 174.377C184.003 174.65 185.517 174.656 186.241 174.629L186.203 173.63L186.166 172.631C185.549 172.654 184.122 172.654 179.467 172.381L179.408 173.379ZM186.203 173.63L186.241 174.629C186.627 174.615 186.729 174.596 186.966 174.597L186.97 173.597L186.973 172.597C186.705 172.596 186.371 172.623 186.165 172.631L186.203 173.63ZM186.97 173.597L186.966 174.597C187.189 174.597 187.517 174.617 188.259 174.691L188.358 173.696L188.458 172.701C187.712 172.627 187.3 172.598 186.973 172.597L186.97 173.597ZM188.358 173.696L188.194 174.683L188.206 174.685L188.37 173.698L188.535 172.712L188.523 172.71L188.358 173.696ZM188.37 173.698L188.218 174.687L188.231 174.689L188.383 173.7L188.535 172.712L188.522 172.71L188.37 173.698ZM188.383 173.7L188.236 174.689C188.6 174.743 189.168 174.716 189.835 174.648L189.733 173.653L189.632 172.658C189.31 172.691 189.053 172.709 188.857 172.716C188.76 172.719 188.683 172.719 188.624 172.717C188.595 172.716 188.572 172.715 188.556 172.714C188.547 172.713 188.541 172.712 188.537 172.712C188.532 172.711 188.53 172.711 188.53 172.711L188.383 173.7ZM189.733 173.653L189.835 174.648C190.52 174.578 191.362 174.459 192.305 174.306L192.145 173.319L191.984 172.332C191.061 172.482 190.261 172.594 189.632 172.658L189.733 173.653ZM192.145 173.319L192.305 174.306C194.19 174 196.497 173.556 198.782 173.088L198.582 172.108L198.382 171.129C196.106 171.594 193.83 172.033 191.984 172.332L192.145 173.319ZM198.582 172.108L198.782 173.088C203.313 172.161 207.782 171.141 208.759 170.92L208.539 169.944L208.319 168.969C207.336 169.191 202.889 170.207 198.382 171.129L198.582 172.108ZM208.539 169.944L208.911 170.873C208.975 170.847 209.063 170.817 209.162 170.79L208.9 169.825L208.639 168.86C208.475 168.904 208.312 168.958 208.168 169.016L208.539 169.944ZM208.9 169.825L209.162 170.79C209.317 170.748 209.52 170.7 209.766 170.646L209.553 169.669L209.34 168.692C209.074 168.75 208.837 168.806 208.639 168.86L208.9 169.825ZM209.553 169.669L209.766 170.646C210.26 170.538 210.918 170.412 211.704 170.27L211.527 169.286L211.35 168.302C210.556 168.445 209.869 168.576 209.34 168.692L209.553 169.669ZM211.527 169.286L211.704 170.27C213.275 169.988 215.34 169.651 217.586 169.301L217.432 168.312L217.277 167.324C215.026 167.676 212.944 168.015 211.35 168.302L211.527 169.286ZM217.432 168.312L217.586 169.301C222.077 168.6 227.286 167.846 230.712 167.366L230.573 166.376L230.434 165.386C227.002 165.867 221.782 166.621 217.277 167.324L217.432 168.312ZM230.573 166.376L230.79 167.352L230.799 167.35L230.582 166.374L230.365 165.398L230.356 165.4L230.573 166.376ZM230.582 166.374L230.682 167.369L230.691 167.368L230.592 166.373L230.492 165.378L230.483 165.379L230.582 166.374ZM230.592 166.373L230.693 167.368C233.657 167.067 240.772 166.485 245.549 166.558L245.564 165.559L245.58 164.559C240.68 164.484 233.469 165.076 230.491 165.378L230.592 166.373ZM245.564 165.559L245.549 166.558C251.469 166.649 259.514 168.411 268.781 173.526L269.265 172.65L269.748 171.775C260.224 166.518 251.861 164.655 245.58 164.559L245.564 165.559ZM269.265 172.65L268.781 173.526C273.417 176.084 276.078 178.091 278.442 180.518L279.158 179.82L279.875 179.123C277.337 176.518 274.503 174.4 269.748 171.775L269.265 172.65ZM279.158 179.82L278.442 180.518C280.827 182.967 282.908 185.835 286.409 190.182L287.188 189.555L287.966 188.927C284.551 184.687 282.347 181.661 279.875 179.123L279.158 179.82ZM287.188 189.555L286.409 190.182C289.823 194.421 291.5 199.25 292.448 203.218L293.421 202.985L294.393 202.753C293.41 198.639 291.641 193.49 287.966 188.927L287.188 189.555ZM293.421 202.985L292.448 203.218C292.923 205.202 293.213 206.962 293.451 208.332L294.437 208.16L295.422 207.989C295.187 206.637 294.885 204.81 294.393 202.753L293.421 202.985ZM294.437 208.16L293.451 208.332C293.569 209.011 293.676 209.606 293.788 210.077L294.761 209.847L295.734 209.617C295.639 209.214 295.542 208.678 295.422 207.989L294.437 208.16ZM294.761 209.847L293.788 210.077C293.847 210.329 293.907 210.539 293.967 210.709C294.019 210.857 294.095 211.047 294.212 211.21L295.024 210.627L295.837 210.044C295.871 210.092 295.884 210.122 295.879 210.112C295.877 210.107 295.868 210.087 295.853 210.045C295.824 209.962 295.783 209.824 295.734 209.617L294.761 209.847ZM295.024 210.627L294.212 211.211C294.267 211.287 294.357 211.519 294.434 211.974L295.42 211.809L296.406 211.643C296.327 211.171 296.185 210.528 295.836 210.043L295.024 210.627ZM295.42 211.809L294.434 211.974C294.507 212.408 294.559 212.977 294.588 213.66L295.587 213.617L296.586 213.574C296.555 212.849 296.498 212.19 296.406 211.643L295.42 211.809ZM295.587 213.617L294.588 213.66C294.646 215.024 294.612 216.802 294.494 218.787L295.492 218.847L296.49 218.906C296.611 216.883 296.648 215.031 296.586 213.575L295.587 213.617ZM295.492 218.847L294.494 218.787C294.258 222.757 293.685 227.511 292.854 231.352L293.831 231.563L294.808 231.775C295.667 227.811 296.25 222.952 296.49 218.906L295.492 218.847ZM293.831 231.563L292.854 231.352C292.198 234.378 290.637 237.812 288.931 240.89L289.806 241.375L290.68 241.86C292.421 238.718 294.092 235.085 294.808 231.775L293.831 231.563ZM289.806 241.375L288.931 240.89C287.229 243.963 285.401 246.65 284.245 248.179L285.042 248.782L285.839 249.386C287.051 247.785 288.93 245.019 290.68 241.86L289.806 241.375ZM285.042 248.782L284.261 248.158L284.257 248.162L285.038 248.787L285.819 249.412L285.823 249.407L285.042 248.782ZM285.038 248.787L284.247 248.175C282.451 250.498 281.257 252.636 278.375 255.233L279.044 255.976L279.713 256.719C282.773 253.962 284.186 251.523 285.829 249.399L285.038 248.787ZM279.044 255.976L278.375 255.233C275.499 257.823 270.943 260.859 262.493 264.816L262.917 265.722L263.341 266.627C271.882 262.628 276.633 259.493 279.713 256.719L279.044 255.976ZM262.917 265.722L262.493 264.816C249.095 271.09 234.507 268.606 228.913 266.585L228.573 267.525L228.233 268.466C234.15 270.603 249.316 273.195 263.341 266.627L262.917 265.722ZM228.573 267.525L228.908 266.583C219.185 263.123 213.748 259.741 210.583 257.092L209.941 257.858L209.299 258.625C212.691 261.464 218.353 264.95 228.238 268.468L228.573 267.525ZM209.941 257.858L210.583 257.092C209.003 255.768 207.983 254.623 207.276 253.733L206.493 254.355L205.71 254.978C206.488 255.957 207.601 257.203 209.299 258.625L209.941 257.858ZM206.493 254.355L207.276 253.733C206.921 253.286 206.646 252.905 206.407 252.582L205.604 253.178L204.8 253.773C205.023 254.074 205.328 254.496 205.71 254.978L206.493 254.355ZM205.604 253.178L206.407 252.582C206.178 252.274 205.964 251.992 205.754 251.798L205.074 252.531L204.394 253.264C204.443 253.309 204.548 253.433 204.8 253.773L205.604 253.178ZM205.074 252.531L205.753 251.797C203.926 250.109 202.175 247.603 200.707 245.163L199.851 245.679L198.994 246.194C200.489 248.68 202.357 251.381 204.395 253.266L205.074 252.531ZM199.851 245.679L200.707 245.163C199.258 242.753 198.103 240.44 197.441 239.106L196.545 239.551L195.649 239.995C196.314 241.335 197.499 243.71 198.994 246.194L199.851 245.679ZM196.545 239.551L197.353 238.962C196.206 237.389 194.564 233.926 192.959 230.171L192.039 230.564L191.12 230.958C192.706 234.667 194.432 238.351 195.737 240.14L196.545 239.551ZM192.039 230.564L192.959 230.171C191.35 226.409 189.803 222.414 188.871 219.886L187.933 220.231L186.994 220.577C187.935 223.13 189.495 227.158 191.12 230.958L192.039 230.564ZM187.933 220.231L187.226 220.939L187.226 220.94L187.934 220.232L188.641 219.525L188.64 219.524L187.933 220.231ZM187.934 220.232L188.871 219.885C188.017 217.576 186.738 214.051 185.682 210.978L184.736 211.303L183.791 211.628C184.854 214.721 186.138 218.262 186.996 220.579L187.934 220.232ZM184.736 211.303L185.682 210.978C185.154 209.441 184.682 208.02 184.347 206.923L183.391 207.216L182.434 207.508C182.779 208.637 183.26 210.083 183.791 211.628L184.736 211.303ZM183.391 207.216L184.347 206.923C184.179 206.375 184.047 205.913 183.96 205.56L182.989 205.802L182.019 206.043C182.119 206.446 182.262 206.946 182.434 207.508L183.391 207.216ZM182.989 205.802L183.96 205.56C183.917 205.388 183.886 205.242 183.866 205.13L182.881 205.303L181.896 205.476C181.926 205.647 181.968 205.839 182.019 206.043L182.989 205.802ZM182.881 205.303L183.866 205.13C183.856 205.075 183.85 205.032 183.846 204.997C183.842 204.96 183.844 204.95 183.843 204.959L182.845 204.901L181.846 204.843C181.832 205.094 181.872 205.339 181.896 205.475L182.881 205.303ZM182.845 204.901L183.843 204.958C183.852 204.794 183.824 204.622 183.804 204.512C183.777 204.371 183.737 204.195 183.679 203.982L182.714 204.245L181.749 204.509C181.797 204.682 181.823 204.803 181.837 204.877C181.844 204.914 181.846 204.933 181.847 204.938C181.847 204.94 181.846 204.935 181.846 204.923C181.845 204.913 181.844 204.885 181.846 204.844L182.845 204.901ZM182.714 204.245L183.679 203.982C183.571 203.589 183.416 203.106 183.229 202.566L182.284 202.893L181.339 203.219C181.52 203.742 181.659 204.178 181.749 204.509L182.714 204.245ZM182.284 202.893L183.229 202.566C182.856 201.485 182.348 200.147 181.83 198.8L180.896 199.159L179.963 199.518C180.482 200.867 180.978 202.175 181.339 203.219L182.284 202.893ZM180.896 199.159L181.83 198.8C181.31 197.449 180.779 196.088 180.354 194.95L179.417 195.3L178.48 195.65C178.91 196.801 179.449 198.181 179.963 199.518L180.896 199.159ZM179.417 195.3L180.354 194.95C179.922 193.796 179.618 192.917 179.533 192.509L178.554 192.712L177.575 192.915C177.698 193.507 178.068 194.547 178.48 195.65L179.417 195.3ZM178.554 192.712L179.533 192.509C179.472 192.215 179.32 191.853 179.123 191.463L178.23 191.914L177.338 192.365C177.422 192.532 177.482 192.665 177.522 192.764C177.564 192.87 177.575 192.916 177.575 192.915L178.554 192.712ZM178.23 191.914L179.123 191.463C178.922 191.066 178.658 190.606 178.355 190.11L177.502 190.632L176.649 191.153C176.938 191.627 177.172 192.036 177.338 192.365L178.23 191.914ZM177.502 190.632L178.355 190.11C177.748 189.117 176.962 187.946 176.151 186.773L175.328 187.342L174.506 187.911C175.311 189.075 176.071 190.209 176.649 191.153L177.502 190.632ZM175.328 187.342L176.151 186.773C174.515 184.407 172.792 182.053 172.112 180.985L171.269 181.521L170.425 182.058C171.128 183.163 172.936 185.64 174.506 187.911L175.328 187.342ZM171.269 181.521L172.112 180.984C171.801 180.496 171.169 179.827 170.398 179.092L169.708 179.815L169.018 180.539C169.8 181.285 170.261 181.801 170.425 182.059L171.269 181.521ZM169.708 179.815L170.398 179.092C169.614 178.344 168.645 177.49 167.624 176.625L166.978 177.388L166.331 178.15C167.337 179.004 168.273 179.829 169.018 180.539L169.708 179.815ZM166.978 177.388L167.624 176.625C165.591 174.901 163.331 173.114 161.863 171.989L161.255 172.782L160.646 173.576C162.096 174.687 164.329 176.453 166.331 178.15L166.978 177.388ZM161.255 172.782L161.802 171.945L155.599 167.89L155.052 168.728L154.505 169.565L160.708 173.619L161.255 172.782ZM155.052 168.728L155.552 167.862L150.758 165.093L150.258 165.959L149.758 166.825L154.552 169.594L155.052 168.728ZM150.258 165.959L149.258 165.991C149.326 168.146 149.531 172.429 150.003 178.447L151 178.369L151.997 178.291C151.527 172.299 151.324 168.047 151.257 165.927L150.258 165.959ZM151 178.369L150.003 178.447C150.724 187.642 152.632 191.776 153.553 194.688L154.507 194.386L155.46 194.084C154.511 191.087 152.696 187.204 151.997 178.291L151 178.369ZM154.507 194.386L153.613 194.834C155.703 199 156.455 200.314 156.84 200.928L157.687 200.396L158.533 199.863C158.205 199.341 157.491 198.104 155.401 193.937L154.507 194.386ZM157.687 200.396L156.84 200.928C157.049 201.261 157.113 201.332 157.232 201.54L158.1 201.043L158.967 200.546C158.835 200.315 158.639 200.032 158.533 199.863L157.687 200.396ZM158.1 201.043L157.232 201.54C157.342 201.733 157.488 202.026 157.796 202.707L158.707 202.296L159.618 201.884C159.311 201.203 159.13 200.831 158.967 200.546L158.1 201.043ZM158.707 202.296L157.797 202.71L157.802 202.72L158.712 202.307L159.622 201.893L159.617 201.882L158.707 202.296ZM158.712 202.307L157.763 202.623L157.767 202.635L158.716 202.318L159.665 202.002L159.661 201.99L158.712 202.307ZM158.716 202.318L157.785 202.685C157.92 203.028 158.229 203.507 158.621 204.05L159.432 203.465L160.242 202.88C160.053 202.617 159.909 202.403 159.806 202.237C159.754 202.154 159.716 202.087 159.688 202.036C159.674 202.01 159.664 201.99 159.657 201.975C159.653 201.967 159.651 201.962 159.649 201.958C159.647 201.954 159.646 201.952 159.646 201.952L158.716 202.318ZM159.432 203.465L158.621 204.05C159.024 204.608 159.549 205.279 160.152 206.018L160.927 205.386L161.702 204.753C161.11 204.028 160.612 203.392 160.242 202.88L159.432 203.465ZM160.927 205.386L160.152 206.018C161.36 207.498 162.899 209.273 164.446 211.019L165.194 210.355L165.943 209.692C164.401 207.954 162.883 206.202 161.702 204.753L160.927 205.386ZM165.194 210.355L164.446 211.019C167.514 214.479 170.632 217.838 171.312 218.575L172.047 217.896L172.782 217.218C172.098 216.478 168.994 213.134 165.943 209.692L165.194 210.355ZM172.047 217.896L171.429 218.682C171.485 218.727 171.556 218.789 171.626 218.859L172.331 218.149L173.036 217.44C172.914 217.318 172.785 217.205 172.665 217.111L172.047 217.896ZM172.331 218.149L171.626 218.859C171.739 218.971 171.881 219.122 172.052 219.31L172.792 218.637L173.532 217.964C173.351 217.765 173.183 217.586 173.036 217.44L172.331 218.149ZM172.792 218.637L172.052 219.31C172.393 219.684 172.832 220.191 173.347 220.801L174.111 220.155L174.875 219.51C174.354 218.893 173.896 218.364 173.532 217.964L172.792 218.637ZM174.111 220.155L173.347 220.801C174.377 222.019 175.701 223.639 177.128 225.409L177.906 224.781L178.685 224.154C177.255 222.38 175.92 220.746 174.875 219.51L174.111 220.155ZM177.906 224.781L177.128 225.409C179.98 228.948 183.237 233.082 185.366 235.81L186.154 235.194L186.943 234.579C184.81 231.847 181.546 227.704 178.685 224.154L177.906 224.781ZM186.154 235.194L185.395 235.845L185.401 235.852L186.16 235.201L186.919 234.55L186.914 234.544L186.154 235.194ZM186.16 235.201L185.36 235.801L185.366 235.809L186.166 235.209L186.966 234.609L186.96 234.601L186.16 235.201ZM186.166 235.209L185.355 235.794C187.098 238.211 191.158 244.081 193.484 248.255L194.357 247.769L195.231 247.282C192.846 243.001 188.728 237.052 186.977 234.624L186.166 235.209ZM194.357 247.769L193.484 248.255C196.365 253.428 198.863 261.275 199.067 271.858L200.066 271.839L201.066 271.82C200.857 260.943 198.288 252.769 195.231 247.282L194.357 247.769ZM200.066 271.839L199.067 271.858C199.169 277.152 198.761 280.46 197.841 283.721L198.804 283.992L199.766 284.264C200.753 280.764 201.171 277.25 201.066 271.82L200.066 271.839ZM198.804 283.992L197.841 283.721C196.913 287.011 195.469 290.247 193.455 295.453L194.388 295.813L195.32 296.174C197.285 291.097 198.804 287.675 199.766 284.264L198.804 283.992ZM194.388 295.813L193.455 295.453C191.491 300.53 188.148 304.395 185.185 307.201L185.873 307.927L186.561 308.653C189.632 305.744 193.206 301.639 195.32 296.174L194.388 295.813ZM185.873 307.927L185.185 307.201C183.704 308.603 182.325 309.735 181.258 310.626L181.899 311.394L182.54 312.161C183.593 311.282 185.025 310.107 186.561 308.653L185.873 307.927ZM181.899 311.394L181.258 310.626C180.729 311.068 180.267 311.459 179.916 311.79L180.602 312.518L181.287 313.246C181.588 312.962 182.004 312.609 182.54 312.161L181.899 311.394ZM180.602 312.518L179.916 311.79C179.727 311.967 179.576 312.124 179.459 312.26C179.356 312.38 179.23 312.54 179.147 312.722L180.058 313.136L180.968 313.549C180.944 313.603 180.924 313.628 180.931 313.619C180.934 313.615 180.947 313.596 180.976 313.563C181.034 313.496 181.132 313.392 181.287 313.245L180.602 312.518ZM180.058 313.136L179.146 312.725C179.108 312.81 178.952 313.003 178.595 313.298L179.231 314.069L179.868 314.841C180.236 314.537 180.724 314.091 180.969 313.546L180.058 313.136ZM179.231 314.069L178.595 313.298C178.255 313.578 177.789 313.908 177.212 314.274L177.749 315.118L178.286 315.962C178.898 315.572 179.441 315.193 179.868 314.841L179.231 314.069ZM177.749 315.118L177.213 314.274C176.06 315.007 174.503 315.867 172.725 316.757L173.173 317.651L173.621 318.546C175.433 317.638 177.056 316.744 178.286 315.962L177.749 315.118ZM173.173 317.651L172.725 316.757C169.169 318.538 164.766 320.419 161.024 321.619L161.329 322.571L161.635 323.524C165.497 322.285 169.996 320.36 173.621 318.546L173.173 317.651ZM161.329 322.571L161.024 321.619C158.075 322.565 154.321 322.928 150.802 322.99L150.819 323.99L150.837 324.99C154.428 324.926 158.41 324.558 161.634 323.524L161.329 322.571ZM150.819 323.99L150.802 322.99C147.289 323.053 144.049 322.814 142.146 322.577L142.022 323.569L141.899 324.562C143.891 324.81 147.226 325.054 150.837 324.99L150.819 323.99ZM142.022 323.569L142.187 322.583L142.181 322.582L142.017 323.568L141.852 324.555L141.858 324.556L142.022 323.569ZM142.017 323.568L142.151 322.577C139.241 322.183 136.792 322.218 133.103 321.021L132.794 321.972L132.485 322.923C136.402 324.194 139.221 324.199 141.882 324.559L142.017 323.568ZM132.794 321.972L133.103 321.021C129.422 319.825 124.514 317.397 116.862 312.058L116.29 312.878L115.718 313.698C123.452 319.095 128.542 321.643 132.485 322.923L132.794 321.972ZM116.29 312.878L116.862 312.058C104.73 303.592 99.5878 289.716 98.541 283.861L97.5566 284.037L96.5722 284.213C97.6792 290.405 103.018 304.836 115.718 313.698L116.29 312.878ZM97.5566 284.037L98.5402 283.856C96.6747 273.705 96.8851 267.305 97.5973 263.24L96.6123 263.067L95.6273 262.895C94.8641 267.251 94.6767 273.898 96.5731 284.218L97.5566 284.037ZM96.6123 263.067L97.5973 263.24C97.9531 261.21 98.4353 259.754 98.8521 258.697L97.9219 258.33L96.9916 257.963C96.5327 259.127 96.0096 260.713 95.6273 262.895L96.6123 263.067ZM97.9219 258.33L98.8521 258.697C99.0617 258.166 99.2546 257.737 99.4144 257.369L98.4971 256.971L97.5797 256.573C97.4306 256.916 97.2173 257.391 96.9916 257.963L97.9219 258.33ZM98.4971 256.971L99.4144 257.369C99.5675 257.016 99.7035 256.69 99.767 256.412L98.792 256.189L97.817 255.967C97.8023 256.032 97.7483 256.184 97.5797 256.573L98.4971 256.971ZM98.792 256.189L99.7674 256.41C100.316 253.984 101.61 251.215 102.989 248.724L102.114 248.239L101.239 247.755C99.8344 250.293 98.4291 253.261 97.8166 255.969L98.792 256.189ZM102.114 248.239L102.989 248.724C104.351 246.263 105.777 244.106 106.601 242.866L105.769 242.312L104.936 241.759C104.108 243.004 102.644 245.218 101.239 247.755L102.114 248.239ZM105.769 242.312L106.683 242.718C107.472 240.938 109.649 237.784 112.098 234.517L111.298 233.917L110.498 233.317C108.078 236.546 105.752 239.883 104.854 241.907L105.769 242.312ZM111.298 233.917L112.098 234.517C114.552 231.242 117.238 227.905 118.962 225.834L118.193 225.194L117.425 224.555C115.684 226.646 112.976 230.01 110.498 233.317L111.298 233.917ZM118.193 225.194H117.193V225.195H118.193H119.193V225.194H118.193ZM118.193 225.195L118.963 225.834C120.535 223.939 122.949 221.069 125.082 218.618L124.328 217.962L123.574 217.305C121.427 219.772 119.002 222.655 117.424 224.557L118.193 225.195ZM124.328 217.962L125.082 218.618C126.149 217.392 127.144 216.273 127.926 215.435L127.194 214.753L126.463 214.071C125.658 214.934 124.646 216.074 123.574 217.305L124.328 217.962ZM127.194 214.753L127.926 215.435C128.316 215.016 128.651 214.67 128.913 214.418L128.219 213.698L127.525 212.978C127.226 213.266 126.864 213.641 126.463 214.071L127.194 214.753ZM128.219 213.698L128.913 214.418C129.042 214.293 129.152 214.194 129.239 214.121L128.597 213.354L127.955 212.588C127.82 212.7 127.675 212.834 127.525 212.978L128.219 213.698ZM128.597 213.354L129.239 214.121C129.281 214.086 129.315 214.059 129.344 214.038C129.373 214.017 129.383 214.013 129.374 214.017L128.926 213.123L128.477 212.229C128.253 212.342 128.061 212.499 127.955 212.588L128.597 213.354ZM128.926 213.123L129.376 214.016C129.522 213.942 129.657 213.831 129.742 213.759C129.852 213.665 129.984 213.542 130.139 213.385L129.429 212.682L128.718 211.978C128.591 212.106 128.501 212.189 128.444 212.238C128.415 212.262 128.399 212.274 128.395 212.277C128.394 212.278 128.398 212.275 128.408 212.269C128.416 212.264 128.44 212.248 128.476 212.23L128.926 213.123ZM129.429 212.682L130.139 213.385C130.425 213.096 130.767 212.72 131.141 212.288L130.386 211.633L129.63 210.977C129.268 211.395 128.959 211.735 128.718 211.978L129.429 212.682ZM130.386 211.633L131.141 212.288C131.891 211.424 132.795 210.315 133.702 209.193L132.925 208.564L132.147 207.936C131.239 209.06 130.354 210.143 129.63 210.977L130.386 211.633ZM132.925 208.564L133.702 209.193C134.612 208.068 135.526 206.927 136.299 205.99L135.527 205.354L134.756 204.717C133.974 205.665 133.048 206.821 132.147 207.936L132.925 208.564ZM135.527 205.354L136.299 205.99C137.083 205.039 137.691 204.337 138.003 204.059L137.337 203.312L136.671 202.566C136.22 202.969 135.505 203.809 134.756 204.717L135.527 205.354ZM137.337 203.312L138.003 204.059C138.227 203.859 138.465 203.545 138.703 203.18L137.866 202.633L137.029 202.085C136.927 202.242 136.842 202.361 136.775 202.445C136.704 202.535 136.67 202.567 136.671 202.566L137.337 203.312ZM137.866 202.633L138.703 203.18C138.947 202.808 139.213 202.35 139.491 201.84L138.612 201.361L137.734 200.883C137.469 201.37 137.232 201.776 137.029 202.085L137.866 202.633ZM138.612 201.361L139.491 201.84C140.047 200.817 140.668 199.551 141.279 198.262L140.375 197.834L139.471 197.406C138.865 198.686 138.263 199.911 137.734 200.883L138.612 201.361ZM140.375 197.834L141.279 198.262C142.51 195.662 143.687 192.993 144.273 191.87L143.386 191.408L142.499 190.946C141.894 192.107 140.653 194.911 139.471 197.406L140.375 197.834ZM143.386 191.408L144.273 191.87C144.54 191.356 144.804 190.474 145.055 189.439L144.083 189.203L143.111 188.967C142.856 190.017 142.64 190.675 142.499 190.946L143.386 191.408ZM144.083 189.203L145.055 189.439C145.31 188.386 145.565 187.12 145.804 185.804L144.82 185.625L143.836 185.446C143.601 186.744 143.354 187.968 143.111 188.967L144.083 189.203ZM144.82 185.625L145.804 185.804C146.28 183.181 146.698 180.33 146.939 178.496L145.947 178.366L144.956 178.236C144.718 180.047 144.305 182.864 143.836 185.446L144.82 185.625ZM145.947 178.366L146.946 178.422L147.356 171.022L146.357 170.967L145.359 170.911L144.949 178.311L145.947 178.366ZM146.357 170.967H147.357V166.195H146.357H145.357V170.967H146.357ZM146.357 166.195L145.84 165.34C144.341 166.246 140.435 168.72 134.732 172.638L135.298 173.462L135.864 174.286C141.546 170.384 145.418 167.932 146.875 167.051L146.357 166.195ZM135.298 173.462L134.732 172.638C127.129 177.859 124.503 181.578 122.443 183.832L123.181 184.507L123.919 185.182C126.04 182.861 128.494 179.348 135.864 174.286L135.298 173.462ZM123.181 184.507L122.345 183.957C119.782 187.85 119.02 189.158 118.681 189.798L119.565 190.266L120.45 190.733C120.738 190.187 121.452 188.951 124.016 185.057L123.181 184.507ZM119.565 190.266L118.681 189.798C118.498 190.145 118.467 190.237 118.347 190.444L119.211 190.947L120.075 191.45C120.209 191.22 120.356 190.91 120.45 190.733L119.565 190.266ZM119.211 190.947L118.347 190.444C118.235 190.636 118.054 190.909 117.618 191.516L118.43 192.1L119.242 192.683C119.678 192.076 119.91 191.734 120.075 191.45L119.211 190.947ZM118.43 192.1L117.61 191.526L117.604 191.536L118.423 192.109L119.242 192.683L119.249 192.673L118.43 192.1ZM118.423 192.109L117.675 191.445L117.668 191.454L118.415 192.118L119.162 192.783L119.17 192.774L118.423 192.109ZM118.415 192.118L117.632 191.496C117.403 191.784 117.142 192.291 116.868 192.902L117.78 193.312L118.693 193.721C118.825 193.426 118.938 193.194 119.031 193.021C119.077 192.935 119.115 192.868 119.146 192.818C119.161 192.794 119.174 192.775 119.183 192.761C119.188 192.754 119.191 192.749 119.194 192.746C119.197 192.742 119.198 192.74 119.198 192.741L118.415 192.118ZM117.78 193.312L116.868 192.902C116.586 193.53 116.268 194.32 115.929 195.213L116.864 195.567L117.799 195.922C118.131 195.047 118.434 194.298 118.693 193.721L117.78 193.312ZM116.864 195.567L115.929 195.213C115.252 196.998 114.484 199.219 113.746 201.432L114.694 201.748L115.643 202.064C116.378 199.86 117.136 197.67 117.799 195.922L116.864 195.567ZM114.694 201.748L113.746 201.432C112.283 205.818 110.933 210.197 110.635 211.155L111.59 211.452L112.545 211.749C112.844 210.786 114.188 206.428 115.643 202.064L114.694 201.748ZM111.59 211.452L110.6 211.31C110.59 211.38 110.572 211.473 110.546 211.569L111.513 211.825L112.479 212.081C112.523 211.915 112.558 211.746 112.58 211.595L111.59 211.452ZM111.513 211.825L110.546 211.569C110.505 211.723 110.446 211.922 110.369 212.164L111.321 212.468L112.274 212.772C112.356 212.516 112.426 212.281 112.479 212.081L111.513 211.825ZM111.321 212.468L110.369 212.164C110.215 212.645 109.995 213.279 109.724 214.031L110.665 214.37L111.606 214.709C111.879 213.95 112.109 213.288 112.274 212.772L111.321 212.468ZM110.665 214.37L109.724 214.031C109.184 215.533 108.443 217.489 107.624 219.609L108.557 219.97L109.489 220.33C110.311 218.205 111.057 216.232 111.606 214.709L110.665 214.37ZM108.557 219.97L107.624 219.609C105.985 223.849 104.033 228.737 102.736 231.944L103.663 232.319L104.59 232.694C105.89 229.481 107.846 224.583 109.489 220.33L108.557 219.97ZM103.663 232.319L102.727 231.968L102.724 231.976L103.66 232.327L104.596 232.678L104.599 232.67L103.663 232.319ZM103.66 232.327L102.746 231.921L102.742 231.93L103.656 232.336L104.57 232.742L104.574 232.733L103.66 232.327ZM103.656 232.336L102.744 231.926C101.523 234.644 98.4689 241.096 96.0167 245.197L96.875 245.71L97.7333 246.223C100.248 242.017 103.341 235.477 104.568 232.746L103.656 232.336ZM96.875 245.71L96.0167 245.197C92.9781 250.278 87.4309 256.365 78.3672 261.833L78.8838 262.689L79.4004 263.546C88.7149 257.926 94.5095 251.614 97.7333 246.223L96.875 245.71ZM78.8838 262.689L78.3672 261.833C73.8335 264.568 70.7651 265.87 67.4814 266.704L67.7275 267.673L67.9737 268.642C71.498 267.747 74.7494 266.352 79.4004 263.546L78.8838 262.689ZM67.7275 267.673L67.4814 266.704C64.1679 267.545 60.6427 267.912 55.1274 268.771L55.2812 269.759L55.4351 270.747C60.8148 269.909 64.5384 269.514 67.9736 268.642L67.7275 267.673ZM55.2812 269.759L55.1274 268.771C49.7488 269.608 44.7301 268.645 40.8191 267.483L40.5342 268.441L40.2492 269.4C44.3036 270.605 49.646 271.648 55.4351 270.747L55.2812 269.759ZM40.5342 268.441L40.8191 267.483C38.8639 266.902 37.194 266.273 35.8891 265.795L35.5449 266.733L35.2007 267.672C36.4888 268.145 38.2219 268.797 40.2492 269.4L40.5342 268.441ZM35.5449 266.733L35.8891 265.795C35.2407 265.557 34.6727 265.353 34.2104 265.214L33.9229 266.172L33.6353 267.13C34.0316 267.249 34.5451 267.432 35.2007 267.672L35.5449 266.733ZM33.9229 266.172L34.2103 265.214C33.9621 265.14 33.751 265.086 33.574 265.053C33.4197 265.024 33.2163 264.995 33.0164 265.015L33.1152 266.01L33.2141 267.005C33.1549 267.011 33.1221 267.007 33.1327 267.007C33.1383 267.008 33.1607 267.01 33.204 267.019C33.2911 267.035 33.4307 267.068 33.6354 267.13L33.9229 266.172ZM33.1152 266.01L33.0151 265.015C32.9224 265.024 32.678 264.986 32.2432 264.824L31.8936 265.761L31.5439 266.698C31.9908 266.864 32.6205 267.065 33.2154 267.005L33.1152 266.01ZM31.8936 265.761L32.2433 264.824C31.8305 264.67 31.3114 264.431 30.7067 264.115L30.2441 265.002L29.7816 265.889C30.426 266.225 31.0252 266.504 31.5438 266.698L31.8936 265.761ZM30.2441 265.002L30.7067 264.115C29.4964 263.484 27.9722 262.565 26.3123 261.47L25.7617 262.305L25.2112 263.139C26.9031 264.255 28.4893 265.214 29.7816 265.889L30.2441 265.002ZM25.7617 262.305L26.3123 261.47C22.9923 259.28 19.1614 256.408 16.2511 253.767L15.5791 254.508L14.9071 255.248C17.9107 257.974 21.8276 260.908 25.2111 263.139L25.7617 262.305ZM15.5791 254.508L16.2511 253.767C13.9579 251.686 11.7663 248.617 9.95274 245.601L9.0957 246.116L8.23867 246.631C10.089 249.709 12.3996 252.973 14.9071 255.248L15.5791 254.508ZM9.0957 246.116L9.95274 245.601C8.14267 242.59 6.72826 239.664 5.98281 237.898L5.06152 238.287L4.14024 238.676C4.92096 240.526 6.37785 243.536 8.23866 246.631L9.0957 246.116ZM5.06152 238.287L6.01021 237.971L6.00825 237.965L5.05957 238.281L4.11089 238.597L4.11284 238.603L5.06152 238.287ZM5.05957 238.281L5.9849 237.902C4.87159 235.185 3.6166 233.082 2.80915 229.288L1.83105 229.496L0.852962 229.704C1.71027 233.732 3.11609 236.176 4.13424 238.66L5.05957 238.281ZM1.83105 229.496L2.80915 229.288C2.00355 225.503 1.65324 220.038 2.45141 210.742L1.45508 210.656L0.458744 210.571C-0.347978 219.967 -0.00995238 225.65 0.852959 229.704L1.83105 229.496ZM1.45508 210.656L2.45141 210.742C3.71715 196.002 13.1618 184.611 17.7091 180.777L17.0645 180.013L16.4198 179.248C11.6108 183.303 1.78367 195.142 0.458745 210.571L1.45508 210.656ZM17.0645 180.013L17.7128 180.774C25.5711 174.083 31.2194 171.065 35.096 169.649L34.7529 168.71L34.4099 167.771C30.2557 169.288 24.405 172.449 16.4162 179.251L17.0645 180.013ZM34.7529 168.71L35.096 169.649C37.0323 168.942 38.5344 168.632 39.6581 168.465L39.5107 167.476L39.3634 166.487C38.1264 166.671 36.4909 167.011 34.4099 167.771L34.7529 168.71ZM39.5107 167.476L39.658 168.465C40.2229 168.381 40.6909 168.333 41.0895 168.287L40.9756 167.294L40.8617 166.3C40.4893 166.343 39.9717 166.396 39.3634 166.486L39.5107 167.476ZM40.9756 167.294L41.0895 168.287C41.474 168.243 41.8217 168.198 42.0934 168.114L41.7988 167.158L41.5043 166.203C41.4398 166.222 41.2793 166.253 40.8617 166.3L40.9756 167.294ZM41.7988 167.158L42.0955 168.113C44.471 167.375 47.5165 167.112 50.3637 167.06L50.3457 166.061L50.3277 165.061C47.4272 165.113 44.1534 165.38 41.5022 166.203L41.7988 167.158ZM50.3457 166.061L50.3637 167.06C53.1759 167.01 55.7567 167.166 57.2428 167.26L57.3057 166.262L57.3685 165.264C55.8764 165.17 53.2266 165.008 50.3277 165.061L50.3457 166.061ZM57.3057 166.262L57.4118 167.256C59.3472 167.05 63.1675 167.359 67.2216 167.845L67.3408 166.853L67.46 165.86C63.4545 165.379 59.4013 165.032 57.1995 165.267L57.3057 166.262ZM67.3408 166.853L67.2216 167.845C71.2841 168.333 75.5174 168.991 78.1732 169.448L78.3428 168.463L78.5124 167.477C75.8311 167.016 71.5634 166.352 67.46 165.86L67.3408 166.853ZM78.3428 168.463L77.6357 167.756L77.6347 167.757L78.3418 168.464L79.0489 169.171L79.0499 169.17L78.3428 168.463ZM78.3418 168.464L78.1734 169.45C80.6005 169.864 84.2933 170.519 87.4825 171.141L87.6738 170.159L87.8652 169.178C84.6552 168.552 80.9458 167.894 78.5102 167.478L78.3418 168.464ZM87.6738 170.159L87.4825 171.141C89.0775 171.452 90.5439 171.754 91.6608 172.011L91.8857 171.037L92.1106 170.063C90.9606 169.797 89.4682 169.49 87.8652 169.178L87.6738 170.159ZM91.8857 171.037L91.6608 172.011C92.2182 172.14 92.6853 172.258 93.0353 172.359L93.3115 171.397L93.5878 170.436C93.1899 170.322 92.6848 170.195 92.1107 170.063L91.8857 171.037ZM93.3115 171.397L93.0352 172.359C93.208 172.408 93.3488 172.453 93.455 172.492L93.7979 171.553L94.1407 170.613C93.9763 170.553 93.7879 170.494 93.5879 170.436L93.3115 171.397ZM93.7979 171.553L93.4549 172.492C93.508 172.511 93.5487 172.527 93.5807 172.542C93.6145 172.557 93.6221 172.563 93.6137 172.557L94.1631 171.722L94.7125 170.886C94.5022 170.748 94.2691 170.66 94.1408 170.613L93.7979 171.553ZM94.1631 171.722L93.6139 172.557C93.7514 172.648 93.9157 172.709 94.0204 172.747C94.1562 172.795 94.329 172.848 94.5427 172.904L94.7969 171.937L95.0511 170.969C94.8767 170.924 94.7592 170.886 94.6883 170.861C94.6527 170.849 94.6347 170.841 94.6305 170.839C94.6285 170.838 94.6337 170.841 94.6443 170.846C94.6526 170.85 94.6782 170.864 94.7123 170.886L94.1631 171.722ZM94.7969 171.937L94.5428 172.904C94.9356 173.007 95.4322 173.114 95.9936 173.223L96.1836 172.241L96.3736 171.259C95.8307 171.154 95.3826 171.056 95.051 170.969L94.7969 171.937ZM96.1836 172.241L95.9937 173.223C97.1167 173.44 98.5292 173.67 99.9547 173.894L100.11 172.906L100.266 171.918C98.8387 171.694 97.4581 171.469 96.3735 171.259L96.1836 172.241ZM100.11 172.906L99.9547 173.894C101.384 174.119 102.828 174.34 104.027 174.541L104.192 173.555L104.358 172.568C103.146 172.365 101.681 172.141 100.266 171.918L100.11 172.906ZM104.192 173.555L104.027 174.541C105.242 174.744 106.154 174.919 106.551 175.05L106.864 174.101L107.178 173.151C106.603 172.961 105.518 172.763 104.358 172.568L104.192 173.555ZM106.864 174.101L106.551 175.05C106.835 175.144 107.226 175.194 107.662 175.218L107.718 174.22L107.774 173.221C107.587 173.211 107.442 173.196 107.335 173.181C107.222 173.164 107.177 173.151 107.178 173.151L106.864 174.101ZM107.718 174.22L107.662 175.218C108.107 175.243 108.637 175.244 109.217 175.229L109.192 174.229L109.167 173.23C108.612 173.244 108.142 173.242 107.774 173.221L107.718 174.22ZM109.192 174.229L109.217 175.229C110.381 175.2 111.787 175.106 113.209 174.99L113.128 173.993L113.047 172.996C111.636 173.111 110.274 173.202 109.167 173.23L109.192 174.229ZM113.128 173.993L113.209 174.99C116.076 174.756 118.976 174.441 120.241 174.386L120.198 173.387L120.155 172.388C118.847 172.444 115.798 172.772 113.047 172.996L113.128 173.993ZM120.198 173.387L120.241 174.386C120.82 174.361 121.716 174.149 122.739 173.848L122.457 172.889L122.175 171.929C121.139 172.233 120.46 172.374 120.155 172.388L120.198 173.387ZM122.457 172.889L122.739 173.848C123.778 173.543 125.001 173.131 126.261 172.68L125.924 171.738L125.587 170.797C124.345 171.242 123.162 171.639 122.175 171.929L122.457 172.889ZM125.924 171.738L126.261 172.68C128.771 171.781 131.448 170.717 133.156 170.009L132.773 169.085L132.39 168.161C130.703 168.861 128.057 169.912 125.587 170.797L125.924 171.738ZM132.773 169.085L133.225 169.977L139.838 166.633L139.387 165.74L138.935 164.848L132.322 168.193L132.773 169.085ZM139.387 165.74L139.887 166.606L145.132 163.577L144.632 162.711L144.132 161.845L138.887 164.874L139.387 165.74ZM144.632 162.711L145.132 161.845L140.887 159.395L140.387 160.261L139.887 161.127L144.132 163.577L144.632 162.711ZM140.387 160.261L140.838 159.368L134.226 156.024L133.774 156.916L133.323 157.808L139.935 161.153L140.387 160.261ZM133.774 156.916L134.157 155.992C132.449 155.284 129.771 154.22 127.261 153.321L126.924 154.263L126.587 155.204C129.058 156.089 131.704 157.14 133.391 157.84L133.774 156.916ZM126.924 154.263L127.261 153.321C126.001 152.87 124.778 152.458 123.739 152.153L123.457 153.112L123.175 154.072C124.162 154.362 125.345 154.759 126.587 155.204L126.924 154.263ZM123.457 153.112L123.739 152.153C122.717 151.853 121.821 151.639 121.242 151.614L121.198 152.613L121.155 153.612C121.46 153.626 122.138 153.767 123.175 154.072L123.457 153.112ZM121.198 152.613L121.241 151.614C119.976 151.559 117.076 151.245 114.209 151.011L114.128 152.008L114.047 153.005C116.798 153.229 119.847 153.556 121.155 153.612L121.198 152.613ZM114.128 152.008L114.209 151.011C112.788 150.895 111.382 150.8 110.217 150.771L110.192 151.771L110.167 152.77C111.274 152.798 112.635 152.889 114.047 153.005L114.128 152.008ZM110.192 151.771L110.217 150.771C109.635 150.756 109.106 150.758 108.662 150.783L108.718 151.781L108.774 152.78C109.143 152.759 109.613 152.756 110.167 152.77L110.192 151.771ZM108.718 151.781L108.662 150.783C108.229 150.807 107.837 150.855 107.551 150.95L107.864 151.899L108.178 152.849C108.176 152.85 108.22 152.836 108.334 152.82C108.44 152.805 108.586 152.79 108.774 152.78L108.718 151.781ZM107.864 151.899L107.551 150.95C107.154 151.081 106.241 151.257 105.027 151.46L105.192 152.446L105.358 153.433C106.519 153.238 107.604 153.038 108.178 152.849L107.864 151.899ZM105.192 152.446L105.027 151.46C103.828 151.661 102.384 151.882 100.955 152.107L101.11 153.095L101.266 154.083C102.682 153.86 104.146 153.636 105.358 153.433L105.192 152.446ZM101.11 153.095L100.955 152.107C99.5291 152.331 98.1168 152.561 96.9937 152.778L97.1836 153.76L97.3735 154.742C98.4582 154.532 99.8386 154.307 101.266 154.083L101.11 153.095ZM97.1836 153.76L96.9936 152.778C96.4337 152.886 95.9366 152.993 95.5427 153.096L95.7969 154.063L96.051 155.031C96.3818 154.944 96.8289 154.847 97.3735 154.742L97.1836 153.76ZM95.7969 154.063L95.5427 153.096C95.3291 153.152 95.1563 153.205 95.0204 153.253C94.9154 153.291 94.7516 153.352 94.6144 153.442L95.1631 154.278L95.7118 155.114C95.678 155.137 95.6526 155.15 95.6443 155.154C95.6338 155.159 95.6285 155.162 95.6305 155.161C95.6348 155.159 95.6528 155.151 95.6884 155.139C95.7592 155.114 95.8767 155.076 96.051 155.031L95.7969 154.063ZM95.1631 154.278L94.6134 153.443C94.6202 153.438 94.6114 153.445 94.5779 153.46C94.5461 153.474 94.5059 153.49 94.4549 153.509L94.7979 154.448L95.1408 155.388C95.2745 155.339 95.5044 155.251 95.7128 155.114L95.1631 154.278ZM94.7979 154.448L94.455 153.509C94.3487 153.548 94.2081 153.593 94.0352 153.642L94.3115 154.604L94.5878 155.565C94.7881 155.507 94.9763 155.448 95.1407 155.388L94.7979 154.448ZM94.3115 154.604L94.0352 153.642C93.6861 153.743 93.22 153.859 92.6608 153.989L92.8857 154.963L93.1107 155.937C93.6834 155.805 94.189 155.679 94.5878 155.565L94.3115 154.604ZM92.8857 154.963L92.6608 153.989C91.5438 154.246 90.0776 154.548 88.4825 154.859L88.6738 155.841L88.8652 156.822C90.4683 156.51 91.9606 156.203 93.1106 155.937L92.8857 154.963ZM88.6738 155.841L88.4825 154.859C85.2931 155.481 81.6003 156.137 79.1734 156.551L79.3418 157.537L79.5102 158.523C81.9461 158.107 85.6553 157.448 88.8652 156.822L88.6738 155.841ZM79.3418 157.537V158.537H79.3428V157.537V156.537H79.3418V157.537ZM79.3428 157.537L79.1732 156.552C76.5175 157.009 72.2843 157.667 68.2216 158.155L68.3408 159.147L68.46 160.14C72.5636 159.648 76.8311 158.984 79.5124 158.523L79.3428 157.537ZM68.3408 159.147L68.2216 158.155C64.1673 158.641 60.3472 158.951 58.4118 158.744L58.3057 159.738L58.1995 160.733C60.4013 160.968 64.4544 160.621 68.46 160.14L68.3408 159.147ZM58.3057 159.738L58.2428 158.74C56.7567 158.834 54.1761 158.99 51.3637 158.94L51.3457 159.939L51.3277 160.939C54.2268 160.992 56.8764 160.83 58.3685 160.736L58.3057 159.738ZM51.3457 159.939L51.3637 158.94C48.5167 158.888 45.472 158.625 43.0964 157.887L42.7998 158.842L42.5032 159.797C45.1544 160.62 48.4272 160.887 51.3277 160.939L51.3457 159.939ZM42.7998 158.842L43.0948 157.886C42.8215 157.802 42.4699 157.757 42.0895 157.714L41.9756 158.707L41.8617 159.701C42.2842 159.749 42.442 159.778 42.5048 159.797L42.7998 158.842ZM41.9756 158.707L42.0895 157.714C41.6909 157.668 41.223 157.62 40.6581 157.536L40.5107 158.525L40.3634 159.514C40.9718 159.605 41.4893 159.658 41.8617 159.701L41.9756 158.707ZM40.5107 158.525L40.6581 157.536C39.5344 157.369 38.0323 157.059 36.096 156.352L35.7529 157.291L35.4099 158.23C37.4909 158.99 39.1264 159.33 40.3634 159.514L40.5107 158.525ZM35.7529 157.291L36.096 156.352C32.2196 154.936 26.5719 151.918 18.7137 145.227L18.0654 145.988L17.4171 146.75C25.4057 153.552 31.2557 156.713 35.4099 158.23L35.7529 157.291ZM18.0654 145.988L18.71 145.224C14.1629 141.39 4.71713 129.999 3.45141 115.258L2.45508 115.344L1.45874 115.429C2.78365 130.859 12.6119 142.698 17.4208 146.753L18.0654 145.988ZM2.45508 115.344L3.45141 115.258C2.65326 105.962 3.00355 100.497 3.80915 96.7121L2.83105 96.5039L1.85296 96.2957C0.990041 100.35 0.65204 106.033 1.45874 115.429L2.45508 115.344ZM2.83105 96.5039L3.80915 96.7121C4.61664 92.9183 5.8716 90.8149 6.9849 88.0979L6.05957 87.7188L5.13424 87.3396C4.11611 89.8244 2.71031 92.2677 1.85296 96.2957L2.83105 96.5039ZM6.05957 87.7188L6.954 88.166L6.95693 88.1601L6.0625 87.7129L5.16807 87.2657L5.16514 87.2715L6.05957 87.7188ZM6.0625 87.7129L6.98378 88.1018C7.72934 86.3356 9.14295 83.4104 10.9527 80.4L10.0957 79.8848L9.23866 79.3695C7.37802 82.4644 5.92196 85.4745 5.14122 87.324L6.0625 87.7129ZM10.0957 79.8848L10.9527 80.4C12.7664 77.3833 14.9586 74.3137 17.252 72.2328L16.5801 71.4922L15.9081 70.7516C13.4003 73.0271 11.0892 76.2915 9.23867 79.3695L10.0957 79.8848ZM16.5801 71.4922L17.252 72.2328C20.1625 69.592 23.9933 66.7197 27.3133 64.5301L26.7627 63.6953L26.2121 62.8605C22.8285 65.0921 18.9119 68.0262 15.9081 70.7516L16.5801 71.4922ZM26.7627 63.6953L27.3133 64.5301C28.973 63.4355 30.4964 62.5171 31.7067 61.8856L31.2441 60.999L30.7816 60.1124C29.4894 60.7866 27.9042 61.7446 26.2121 62.8605L26.7627 63.6953ZM31.2441 60.999L31.7067 61.8856C32.3127 61.5694 32.8311 61.3299 33.2433 61.1761L32.8936 60.2393L32.5439 59.3024C32.0243 59.4963 31.4251 59.7767 30.7816 60.1124L31.2441 60.999ZM32.8936 60.2393L33.2432 61.1761C33.6762 61.0145 33.9215 60.9767 34.0149 60.9862L34.1152 59.9912L34.2156 58.9963C33.6214 58.9364 32.9927 59.1349 32.5439 59.3024L32.8936 60.2393ZM34.1152 59.9912L34.0169 60.9864C34.2164 61.0061 34.4195 60.9769 34.574 60.9478C34.751 60.9145 34.9621 60.8614 35.2104 60.7869L34.9229 59.8291L34.6353 58.8713C34.4307 58.9328 34.2911 58.9659 34.2041 58.9823C34.1608 58.9905 34.1384 58.993 34.1328 58.9935C34.1221 58.9944 34.1548 58.9902 34.2136 58.9961L34.1152 59.9912ZM34.9229 59.8291L35.2104 60.7869C35.6734 60.6479 36.242 60.4427 36.8891 60.2055L36.5449 59.2666L36.2007 58.3277C35.5433 58.5687 35.0312 58.7525 34.6353 58.8713L34.9229 59.8291ZM36.5449 59.2666L36.8891 60.2055C38.1941 59.7271 39.8637 59.0984 41.8191 58.5171L41.5342 57.5586L41.2492 56.6001C39.2218 57.2028 37.4889 57.8555 36.2007 58.3277L36.5449 59.2666ZM41.5342 57.5586L41.8191 58.5171C45.7303 57.3545 50.7495 56.3918 56.1284 57.2293L56.2822 56.2412L56.4361 55.2531C50.6467 54.3517 45.3037 55.3948 41.2492 56.6L41.5342 57.5586ZM56.2822 56.2412L56.1284 57.2293C61.6432 58.088 65.1679 58.456 68.4814 59.2974L68.7275 58.3281L68.9737 57.3589C65.5384 56.4866 61.816 56.0908 56.4361 55.2531L56.2822 56.2412ZM68.7275 58.3281L68.4814 59.2974C71.765 60.1312 74.8336 61.4325 79.3672 64.1678L79.8838 63.3115L80.4004 62.4553C75.7495 59.6493 72.4979 58.2538 68.9737 57.3589L68.7275 58.3281ZM79.8838 63.3115L79.3672 64.1678C88.4306 69.636 93.9781 75.7217 97.0167 80.8033L97.875 80.29L98.7333 79.7768C95.5095 74.3857 89.7146 68.0749 80.4004 62.4553L79.8838 63.3115ZM97.875 80.29L97.0167 80.8032C99.4689 84.9043 102.523 91.3563 103.744 94.074L104.656 93.6641L105.568 93.2541C104.341 90.5235 101.248 83.983 98.7333 79.7768L97.875 80.29ZM104.656 93.6641L103.742 94.0702L103.746 94.079L104.66 93.6729L105.574 93.2667L105.57 93.2579L104.656 93.6641ZM104.66 93.6729L103.711 93.9891L103.714 93.9979L104.663 93.6816L105.612 93.3654L105.609 93.3566L104.66 93.6729ZM104.663 93.6816L103.736 94.0566C105.033 97.2639 106.985 102.152 108.624 106.392L109.557 106.031L110.489 105.671C108.846 101.418 106.89 96.5197 105.59 93.3066L104.663 93.6816ZM109.557 106.031L108.624 106.392C109.443 108.512 110.185 110.468 110.725 111.97L111.666 111.631L112.607 111.292C112.058 109.769 111.311 107.796 110.489 105.671L109.557 106.031ZM111.666 111.631L110.725 111.97C110.996 112.72 111.215 113.354 111.369 113.836L112.321 113.532L113.274 113.228C113.109 112.712 112.88 112.052 112.607 111.292L111.666 111.631ZM112.321 113.532L111.369 113.836C111.446 114.077 111.505 114.277 111.546 114.432L112.513 114.176L113.479 113.92C113.427 113.72 113.356 113.485 113.274 113.228L112.321 113.532ZM112.513 114.176L111.546 114.432C111.572 114.529 111.59 114.621 111.6 114.69L112.59 114.548L113.58 114.405C113.558 114.253 113.523 114.085 113.479 113.92L112.513 114.176ZM112.59 114.548L111.635 114.845C111.933 115.803 113.283 120.182 114.746 124.569L115.694 124.253L116.643 123.937C115.188 119.573 113.844 115.213 113.545 114.251L112.59 114.548ZM115.694 124.253L114.746 124.569C115.484 126.782 116.252 129.003 116.929 130.788L117.864 130.434L118.799 130.079C118.136 128.331 117.378 126.141 116.643 123.937L115.694 124.253ZM117.864 130.434L116.929 130.788C117.268 131.681 117.586 132.47 117.868 133.098L118.78 132.688L119.693 132.279C119.434 131.702 119.131 130.954 118.799 130.079L117.864 130.434ZM118.78 132.688L117.868 133.098C118.142 133.709 118.403 134.216 118.632 134.504L119.415 133.882L120.198 133.26C120.198 133.26 120.197 133.258 120.194 133.254C120.191 133.251 120.188 133.246 120.183 133.239C120.174 133.225 120.161 133.206 120.146 133.182C120.115 133.132 120.077 133.065 120.031 132.979C119.938 132.806 119.825 132.574 119.693 132.279L118.78 132.688ZM119.415 133.882L118.634 134.507L118.642 134.516L119.423 133.892L120.204 133.267L120.196 133.257L119.415 133.882ZM119.423 133.892L118.675 134.556L118.683 134.565L119.431 133.9L120.178 133.236L120.17 133.227L119.423 133.892ZM119.431 133.9L118.619 134.484C119.054 135.09 119.236 135.364 119.348 135.557L120.212 135.054L121.076 134.551C120.912 134.268 120.68 133.925 120.243 133.317L119.431 133.9ZM120.212 135.054L119.347 135.556C119.468 135.764 119.497 135.853 119.681 136.201L120.565 135.734L121.45 135.267C121.358 135.093 121.21 134.78 121.076 134.551L120.212 135.054ZM120.565 135.734L119.681 136.202C120.02 136.842 120.783 138.15 123.345 142.043L124.181 141.493L125.016 140.943C122.452 137.049 121.738 135.813 121.45 135.267L120.565 135.734ZM124.181 141.493L123.443 142.168C125.503 144.421 128.129 148.141 135.732 153.363L136.298 152.539L136.864 151.715C129.494 146.653 127.04 143.139 124.919 140.818L124.181 141.493ZM136.298 152.539L135.732 153.363C140.433 156.593 143.913 158.84 145.827 160.036L146.357 159.188L146.887 158.34C145 157.161 141.545 154.93 136.864 151.715L136.298 152.539ZM146.357 159.188H147.357V154.033H146.357H145.357V159.188H146.357ZM146.357 154.033L147.356 153.978L146.946 146.578L145.947 146.634L144.949 146.689L145.359 154.089L146.357 154.033ZM145.947 146.634L146.939 146.504C146.698 144.67 146.28 141.819 145.804 139.196L144.82 139.375L143.836 139.554C144.305 142.136 144.718 144.953 144.956 146.764L145.947 146.634ZM144.82 139.375L145.804 139.196C145.565 137.88 145.31 136.614 145.055 135.561L144.083 135.797L143.111 136.033C143.354 137.032 143.601 138.256 143.836 139.554L144.82 139.375ZM144.083 135.797L145.055 135.561C144.804 134.526 144.54 133.644 144.273 133.13L143.386 133.592L142.499 134.054C142.64 134.324 142.856 134.982 143.111 136.033L144.083 135.797ZM143.386 133.592L144.273 133.13C143.687 132.006 142.51 129.337 141.279 126.738L140.375 127.166L139.471 127.594C140.653 130.089 141.894 132.892 142.499 134.054L143.386 133.592ZM140.375 127.166L141.279 126.738C140.668 125.449 140.047 124.183 139.491 123.16L138.612 123.639L137.734 124.117C138.263 125.089 138.865 126.314 139.471 127.594L140.375 127.166ZM138.612 123.639L139.491 123.16C139.213 122.65 138.947 122.192 138.703 121.82L137.866 122.367L137.029 122.915C137.232 123.224 137.469 123.63 137.734 124.117L138.612 123.639ZM137.866 122.367L138.703 121.82C138.465 121.456 138.227 121.141 138.002 120.941L137.337 121.688L136.671 122.434C136.67 122.433 136.704 122.465 136.775 122.555C136.841 122.639 136.927 122.758 137.029 122.915L137.866 122.367ZM137.337 121.688L138.003 120.941C137.691 120.663 137.082 119.96 136.299 119.01L135.527 119.646L134.756 120.283C135.505 121.191 136.22 122.031 136.671 122.434L137.337 121.688ZM135.527 119.646L136.299 119.01C135.526 118.072 134.612 116.932 133.702 115.807L132.925 116.436L132.147 117.064C133.048 118.179 133.974 119.335 134.756 120.283L135.527 119.646ZM132.925 116.436L133.702 115.807C132.795 114.685 131.891 113.576 131.141 112.712L130.386 113.367L129.63 114.023C130.354 114.857 131.239 115.94 132.147 117.064L132.925 116.436ZM130.386 113.367L131.141 112.712C130.767 112.28 130.425 111.904 130.139 111.615L129.429 112.318L128.718 113.022C128.959 113.265 129.268 113.604 129.63 114.023L130.386 113.367ZM129.429 112.318L130.139 111.615C129.984 111.458 129.851 111.334 129.742 111.241C129.658 111.169 129.522 111.057 129.374 110.983L128.926 111.877L128.477 112.771C128.441 112.752 128.416 112.737 128.408 112.732C128.398 112.725 128.394 112.722 128.395 112.723C128.399 112.726 128.415 112.737 128.443 112.762C128.5 112.811 128.591 112.894 128.718 113.022L129.429 112.318ZM128.926 111.877L129.375 110.983C129.383 110.987 129.373 110.983 129.344 110.962C129.315 110.941 129.281 110.914 129.239 110.879L128.597 111.646L127.955 112.412C128.061 112.502 128.253 112.658 128.477 112.771L128.926 111.877ZM128.597 111.646L129.239 110.879C129.152 110.806 129.042 110.707 128.913 110.582L128.219 111.302L127.525 112.022C127.675 112.166 127.82 112.3 127.955 112.412L128.597 111.646ZM128.219 111.302L128.913 110.582C128.651 110.329 128.316 109.984 127.926 109.565L127.194 110.247L126.463 110.929C126.864 111.359 127.226 111.734 127.525 112.022L128.219 111.302ZM127.194 110.247L127.926 109.565C127.144 108.727 126.149 107.608 125.082 106.382L124.328 107.038L123.574 107.695C124.646 108.926 125.658 110.066 126.463 110.929L127.194 110.247ZM124.328 107.038L125.082 106.382C122.949 103.93 120.535 101.06 118.963 99.166L118.193 99.8047L117.424 100.443C119.002 102.345 121.427 105.228 123.574 107.695L124.328 107.038ZM118.193 99.8047H117.193V99.8057H118.193H119.193V99.8047H118.193ZM118.193 99.8057L118.962 99.166C117.238 97.0946 114.552 93.7576 112.098 90.4833L111.298 91.083L110.498 91.6827C112.976 94.9899 115.684 98.354 117.425 100.445L118.193 99.8057ZM111.298 91.083L112.098 90.4833C109.649 87.2157 107.471 84.0616 106.683 82.2823L105.769 82.6875L104.854 83.0927C105.752 85.117 108.078 88.4542 110.498 91.6827L111.298 91.083ZM105.769 82.6875L106.601 82.134C105.777 80.8937 104.351 78.7371 102.989 76.2764L102.114 76.7607L101.239 77.2451C102.644 79.7817 104.108 81.9957 104.936 83.241L105.769 82.6875ZM102.114 76.7607L102.989 76.2764C101.61 73.7852 100.316 71.0161 99.7674 68.59L98.792 68.8105L97.8166 69.0311C98.429 71.7388 99.8344 74.707 101.239 77.245L102.114 76.7607ZM98.792 68.8105L99.7669 68.5878C99.7033 68.3098 99.5676 67.9842 99.4144 67.6312L98.4971 68.0293L97.5797 68.4274C97.7481 68.8153 97.8022 68.9682 97.8171 69.0333L98.792 68.8105ZM98.4971 68.0293L99.4144 67.6312C99.2546 67.263 99.0616 66.8341 98.8521 66.303L97.9219 66.6699L96.9916 67.0369C97.2173 67.6089 97.4306 68.0838 97.5797 68.4274L98.4971 68.0293ZM97.9219 66.6699L98.8521 66.303C98.4353 65.2462 97.953 63.7904 97.5973 61.76L96.6123 61.9326L95.6273 62.1052C96.0096 64.2871 96.5327 65.8734 96.9916 67.0368L97.9219 66.6699ZM96.6123 61.9326L97.5973 61.7601C96.8852 57.695 96.6747 51.2945 98.5402 41.1436L97.5566 40.9629L96.5731 40.7821C94.6767 51.1015 94.8642 57.7489 95.6273 62.1052L96.6123 61.9326ZM97.5566 40.9629L98.541 41.1389C99.588 35.2836 104.73 21.4082 116.862 12.9421L116.29 12.1221L115.718 11.302C103.018 20.1639 97.6795 34.5945 96.5723 40.7869L97.5566 40.9629ZM116.29 12.1221L116.862 12.9422C124.514 7.60266 129.422 5.17447 133.103 3.97946L132.794 3.02832L132.485 2.07718C128.542 3.35719 123.452 5.90522 115.718 11.302L116.29 12.1221ZM132.794 3.02832L133.103 3.97946C136.792 2.78182 139.241 2.81697 142.151 2.42258L142.017 1.43164L141.882 0.440702C139.221 0.801376 136.402 0.805605 132.485 2.07718L132.794 3.02832ZM142.017 1.43164L142.181 2.41803L142.187 2.41706L142.022 1.43066L141.858 0.44427L141.852 0.445247L142.017 1.43164ZM142.022 1.43066L142.146 2.42297C144.049 2.18555 147.289 1.94743 150.802 2.00961L150.819 1.00977L150.837 0.0099223C147.226 -0.0540035 143.891 0.189724 141.899 0.438363L142.022 1.43066Z" fill="white"/>
</svg>
