<svg xmlns="http://www.w3.org/2000/svg" viewBox="0 13 201.4499969482422 34" data-asc="0.93" width="201.4499969482422" height="34"><defs/><g fill="#000000"><g transform="translate(0, 0)"><path d="M15.75 13.50Q21.65 13.50 24.93 16.27Q28.20 19.05 28.20 23.65Q28.20 28.70 24.95 31.35Q21.70 34 15.80 34L15.00 34.45L8.45 34.45L8.45 46.50L0 46.50L0 13.50L15.75 13.50M14.55 28.35Q17.05 28.35 18.30 27.35Q19.55 26.35 19.55 24.15Q19.55 22 18.30 21Q17.05 20 14.55 20L8.45 20L8.45 28.35L14.55 28.35M19.60 30.15L30.15 46.50L20.65 46.50L12.20 32.05L19.60 30.15ZM34.45 46.50L34.45 13.50L60.15 13.50L60.15 20.15L43.05 20.15L43.05 26.85L56.65 26.85L56.65 33.10L43.05 33.10L43.05 39.85L60.80 39.85L60.80 46.50L34.45 46.50ZM96.20 13.50L84.50 46.50L74.40 46.50L62.65 13.50L71.70 13.50L77.75 33.45L79.55 39.95L81.30 33.55L87.45 13.50L96.20 13.50ZM114.95 13Q119.95 13 123.58 15.02Q127.20 17.05 129.15 20.85Q131.10 24.65 131.10 30Q131.10 35.35 129.15 39.15Q127.20 42.95 123.58 44.98Q119.95 47 114.95 47Q109.95 47 106.30 44.98Q102.65 42.95 100.70 39.15Q98.75 35.35 98.75 30Q98.75 24.65 100.70 20.85Q102.65 17.05 106.30 15.02Q109.95 13 114.95 13M114.95 19.75Q112.55 19.75 110.90 20.90Q109.25 22.05 108.40 24.32Q107.55 26.60 107.55 30Q107.55 33.35 108.40 35.65Q109.25 37.95 110.90 39.10Q112.55 40.25 114.95 40.25Q117.35 40.25 118.97 39.10Q120.60 37.95 121.45 35.65Q122.30 33.35 122.30 30Q122.30 26.60 121.45 24.32Q120.60 22.05 118.97 20.90Q117.35 19.75 114.95 19.75ZM152.75 13.50Q158.65 13.50 161.93 16.27Q165.20 19.05 165.20 23.65Q165.20 28.70 161.95 31.35Q158.70 34 152.80 34L152 34.45L145.45 34.45L145.45 46.50L137 46.50L137 13.50L152.75 13.50M151.55 28.35Q154.05 28.35 155.30 27.35Q156.55 26.35 156.55 24.15Q156.55 22 155.30 21Q154.05 20 151.55 20L145.45 20L145.45 28.35L151.55 28.35M156.60 30.15L167.15 46.50L157.65 46.50L149.20 32.05L156.60 30.15ZM185.45 13.50Q193.20 13.50 197.33 17.80Q201.45 22.10 201.45 30Q201.45 37.90 197.33 42.20Q193.20 46.50 185.45 46.50L171.45 46.50L171.45 13.50L185.45 13.50M184.60 40Q188.80 40 190.73 37.48Q192.65 34.95 192.65 30Q192.65 25.05 190.73 22.52Q188.80 20 184.60 20L180.05 20L180.05 40L184.60 40Z"/></g></g></svg>
