    <svg xmlns="http://www.w3.org/2000/svg" viewBox="0 13.5 94.1500015258789 33" data-asc="0.93" width="94.1500015258789" height="33"><defs /><g fill="#000000"><g transform="translate(0, 0)"><path d="M0 46.50L0 13.50L13.40 13.50Q16.10 13.50 18.30 13.92Q20.50 14.35 22.20 15.15Q23.90 15.95 25.08 17.13Q26.25 18.30 26.85 19.82Q27.45 21.35 27.45 23.20Q27.45 24.95 26.90 26.38Q26.35 27.80 25.25 28.85Q24.15 29.90 22.50 30.57Q20.85 31.25 18.65 31.50L18.65 32.25Q21.20 32.50 22.73 33.42Q24.25 34.35 25.13 35.90Q26 37.45 26.65 39.75L28.65 46.50L20.70 46.50L19.15 40.25Q18.70 38.25 17.85 37.13Q17 36 15.70 35.52Q14.40 35.05 12.55 35.05L7.20 35.05L7.20 46.50L0 46.50M7.20 29.65L12.90 29.65Q16.30 29.65 18.15 28.35Q20 27.05 20 24.30Q20 21.60 18.27 20.32Q16.55 19.05 13.10 19.05L7.20 19.05L7.20 29.65ZM33.95 46.50L33.95 13.50L41.20 13.50L41.20 46.50L33.95 46.50M38.95 46.50L38.95 40.65L59.40 40.65L59.40 46.50L38.95 46.50M38.95 32.50L38.95 27.15L56.90 27.15L56.90 32.50L38.95 32.50M38.95 19.30L38.95 13.50L59.30 13.50L59.30 19.30L38.95 19.30ZM73.15 46.50L62.25 13.50L70.10 13.50L77.90 40.40L78.55 40.40L86.40 13.50L94.15 13.50L83.20 46.50L73.15 46.50Z" /></g></g></svg>
