<svg xmlns="http://www.w3.org/2000/svg" viewBox="0 8.550000190734863 214.60000610351562 37.60000228881836" data-asc="0.905" width="214.60000610351562" height="37.60000228881836"><defs/><g fill="#ffffff"><g transform="translate(0, 0)"><path d="M0 9.45L17.65 9.45Q23.10 9.45 25.95 11.15Q30.80 14 30.80 19.80Q30.80 22.80 29.30 25.15Q27.80 27.50 25.25 28.55Q27.50 29.15 28.85 31.25Q29.75 32.65 30.07 34.13Q30.40 35.60 30.85 40.80Q31.20 44.10 31.75 44.90L32.05 45.25L22.50 45.25Q22.05 44.20 21.45 37.75Q21.05 34.50 19.65 33.23Q18.25 31.95 15.10 31.95L9.35 31.95L9.35 45.25L0 45.25L0 9.45M9.35 16.80L9.35 25.25L15.95 25.25Q21.60 25.25 21.60 20.95Q21.60 16.80 15.85 16.80L9.35 16.80ZM66.20 9.45L66.20 17.15L46.90 17.15L46.90 23.10L64.55 23.10L64.55 30.45L46.90 30.45L46.90 37.55L66.65 37.55L66.65 45.25L37.55 45.25L37.55 9.45L66.20 9.45ZM102.20 9.45L90.55 45.25L79.80 45.25L68.45 9.45L78.25 9.45L81.50 19.85Q84.25 28.60 85.30 36.05Q86.45 28.55 89.15 19.90L92.40 9.45L102.20 9.45ZM121.55 8.55Q129.90 8.55 134.85 14.45Q139.10 19.60 139.10 27.35Q139.10 36.30 133.60 41.55Q128.80 46.15 121.55 46.15Q113.05 46.15 108.05 40.25Q103.75 35.15 103.75 27.35Q103.75 18.40 109.05 13.35Q114.15 8.55 121.55 8.55M121.50 16.25Q117.45 16.25 115.20 19.65Q113.25 22.55 113.25 27.30Q113.25 32.85 115.75 35.85Q117.95 38.45 121.55 38.45Q125.35 38.45 127.50 35.48Q129.65 32.50 129.65 27.15Q129.65 21.70 127.15 18.80Q125 16.25 121.50 16.25ZM144.05 9.45L161.70 9.45Q167.15 9.45 170 11.15Q174.85 14 174.85 19.80Q174.85 22.80 173.35 25.15Q171.85 27.50 169.30 28.55Q171.55 29.15 172.90 31.25Q173.80 32.65 174.13 34.13Q174.45 35.60 174.90 40.80Q175.25 44.10 175.80 44.90L176.10 45.25L166.55 45.25Q166.10 44.20 165.50 37.75Q165.10 34.50 163.70 33.23Q162.30 31.95 159.15 31.95L153.40 31.95L153.40 45.25L144.05 45.25L144.05 9.45M153.40 16.80L153.40 25.25L160 25.25Q165.65 25.25 165.65 20.95Q165.65 16.80 159.90 16.80L153.40 16.80ZM181.60 9.45L196.90 9.45Q204.75 9.45 209.15 13.45Q214.60 18.35 214.60 27.10Q214.60 36.15 209.50 41.10Q205.25 45.25 196.85 45.25L181.60 45.25L181.60 9.45M190.95 17.15L190.95 37.55L196.10 37.55Q200.50 37.55 202.60 35.30Q205.10 32.55 205.10 27.40Q205.10 21.55 201.65 18.90Q199.30 17.15 195.45 17.15L190.95 17.15Z"/></g></g></svg>